<svg width="86" height="86" viewBox="0 0 86 86" fill="none" xmlns="http://www.w3.org/2000/svg">
<path fill-rule="evenodd" clip-rule="evenodd" d="M72.2846 31.4764C72.0988 31.4011 71.9497 31.256 71.8693 31.0723C71.7889 30.8886 71.7836 30.6807 71.8544 30.4931C72.7699 28.2151 72.9964 25.7184 72.5059 23.3128C72.0153 20.9073 70.8293 18.6986 69.095 16.961C67.3606 15.2234 65.1542 14.0332 62.7496 13.5381C60.3449 13.043 57.8479 13.2648 55.5681 14.176C55.4754 14.2167 55.3755 14.2387 55.2742 14.2406C55.1729 14.2425 55.0722 14.2244 54.978 14.1873C54.8837 14.1501 54.7978 14.0947 54.725 14.0242C54.6523 13.9538 54.5942 13.8696 54.5541 13.7766C53.5754 11.5256 51.9606 9.60962 49.9081 8.26383C47.8555 6.91804 45.4545 6.20111 43 6.20111C40.5456 6.20111 38.1446 6.91804 36.092 8.26383C34.0394 9.60962 32.4246 11.5256 31.446 13.7766C31.4059 13.8696 31.3478 13.9538 31.275 14.0242C31.2023 14.0947 31.1163 14.1501 31.0221 14.1873C30.9278 14.2244 30.8271 14.2425 30.7259 14.2406C30.6246 14.2387 30.5247 14.2167 30.4319 14.176C28.1522 13.2648 25.6551 13.043 23.2505 13.5381C20.8458 14.0332 18.6395 15.2234 16.9051 16.961C15.1707 18.6986 13.9847 20.9073 13.4942 23.3128C13.0036 25.7184 13.2301 28.2151 14.1456 30.4931C14.2165 30.6807 14.2111 30.8886 14.1307 31.0723C14.0503 31.256 13.9013 31.4011 13.7154 31.4764C11.4604 32.443 9.53852 34.05 8.18797 36.0984C6.83743 38.1467 6.11755 40.5462 6.11755 42.9997C6.11755 45.4532 6.83743 47.8527 8.18797 49.9011C9.53852 51.9494 11.4604 53.5564 13.7154 54.523C13.9013 54.5983 14.0503 54.7434 14.1307 54.9271C14.2111 55.1108 14.2165 55.3187 14.1456 55.5064C13.2301 57.7844 13.0036 60.281 13.4942 62.6866C13.9847 65.0922 15.1707 67.3008 16.9051 69.0384C18.6395 70.776 20.8458 71.9662 23.2505 72.4613C25.6551 72.9564 28.1522 72.7346 30.4319 71.8234C30.5247 71.7827 30.6246 71.7608 30.7259 71.7588C30.8271 71.7569 30.9278 71.775 31.0221 71.8121C31.1163 71.8493 31.2023 71.9047 31.275 71.9752C31.3478 72.0457 31.4059 72.1298 31.446 72.2229C32.4246 74.4738 34.0394 76.3898 36.092 77.7356C38.1446 79.0814 40.5456 79.7983 43 79.7983C45.4545 79.7983 47.8555 79.0814 49.9081 77.7356C51.9606 76.3898 53.5754 74.4738 54.5541 72.2229C54.5942 72.1298 54.6523 72.0457 54.725 71.9752C54.7978 71.9047 54.8837 71.8493 54.978 71.8121C55.0722 71.775 55.1729 71.7569 55.2742 71.7588C55.3755 71.7608 55.4754 71.7827 55.5681 71.8234C57.8479 72.7346 60.3449 72.9564 62.7496 72.4613C65.1542 71.9662 67.3606 70.776 69.095 69.0384C70.8293 67.3008 72.0153 65.0922 72.5059 62.6866C72.9964 60.281 72.7699 57.7844 71.8544 55.5064C71.7836 55.3187 71.7889 55.1108 71.8693 54.9271C71.9497 54.7434 72.0988 54.5983 72.2846 54.523C74.5397 53.5564 76.4615 51.9494 77.8121 49.9011C79.1626 47.8527 79.8825 45.4532 79.8825 42.9997C79.8825 40.5462 79.1626 38.1467 77.8121 36.0984C76.4615 34.05 74.5397 32.443 72.2846 31.4764ZM33.9965 29.1717C33.9965 28.3567 34.3202 27.5751 34.8965 26.9989C35.4728 26.4226 36.2544 26.0988 37.0694 26.0988H38.9131C39.0761 26.0988 39.2324 26.0341 39.3477 25.9188C39.4629 25.8036 39.5277 25.6472 39.5277 25.4843V24.5624C39.5277 23.7474 39.8514 22.9658 40.4277 22.3895C41.004 21.8132 41.7856 21.4895 42.6006 21.4895C43.4155 21.4895 44.1971 21.8132 44.7734 22.3895C45.3497 22.9658 45.6734 23.7474 45.6734 24.5624V25.4843C45.6734 25.6472 45.7382 25.8036 45.8534 25.9188C45.9687 26.0341 46.125 26.0988 46.288 26.0988C49.0589 26.0988 51.7164 27.1996 53.6757 29.1589C55.6351 31.1183 56.7358 33.7757 56.7358 36.5466C56.7501 39.071 55.8308 41.5116 54.1546 43.3992C54.0373 43.5421 53.9731 43.7213 53.9731 43.9062C53.9731 44.0911 54.0373 44.2703 54.1546 44.4132C55.4776 45.9239 56.3372 47.7839 56.6305 49.7705C56.9238 51.7571 56.6384 53.7862 55.8084 55.6148C54.9784 57.4433 53.639 58.994 51.9506 60.0811C50.2621 61.1682 48.2961 61.7456 46.288 61.7443C46.125 61.7443 45.9687 61.8091 45.8534 61.9243C45.7382 62.0396 45.6734 62.1959 45.6734 62.3589V64.5099C45.6734 65.3249 45.3497 66.1065 44.7734 66.6828C44.1971 67.2591 43.4155 67.5828 42.6006 67.5828C41.7856 67.5828 41.004 67.2591 40.4277 66.6828C39.8514 66.1065 39.5277 65.3249 39.5277 64.5099V62.3589C39.5277 62.1959 39.4629 62.0396 39.3477 61.9243C39.2324 61.8091 39.0761 61.7443 38.9131 61.7443H37.0694C36.2544 61.7443 35.4728 61.4206 34.8965 60.8443C34.3202 60.268 33.9965 59.4864 33.9965 58.6714V29.1717ZM46.288 46.9944H40.9104C40.7067 46.9944 40.5113 47.0753 40.3672 47.2194C40.2232 47.3634 40.1422 47.5588 40.1422 47.7626V54.8302C40.1422 55.034 40.2232 55.2294 40.3672 55.3734C40.5113 55.5175 40.7067 55.5985 40.9104 55.5985H46.288C47.429 55.5985 48.5232 55.1452 49.33 54.3384C50.1368 53.5316 50.59 52.4374 50.59 51.2964C50.59 50.1554 50.1368 49.0612 49.33 48.2544C48.5232 47.4476 47.429 46.9944 46.288 46.9944ZM40.3672 32.4696C40.5113 32.3255 40.7067 32.2446 40.9104 32.2446H46.288C47.429 32.2446 48.5232 32.6979 49.33 33.5047C50.1368 34.3114 50.59 35.4057 50.59 36.5467C50.59 37.6876 50.1368 38.7819 49.33 39.5887C48.5232 40.3954 47.429 40.8487 46.288 40.8487H40.9104C40.7067 40.8487 40.5113 40.7678 40.3672 40.6237C40.2232 40.4796 40.1422 40.2842 40.1422 40.0805V33.0128C40.1422 32.8091 40.2232 32.6137 40.3672 32.4696Z" fill="url(#paint0_linear_1_58)"/>
<defs>
<linearGradient id="paint0_linear_1_58" x1="43" y1="6.20111" x2="43" y2="76.4999" gradientUnits="userSpaceOnUse">
<stop stop-color="#00B9E9"/>
<stop offset="1" stop-color="#1CF7CF"/>
</linearGradient>
</defs>
</svg>
