<svg width="86" height="86" viewBox="0 0 86 86" fill="none" xmlns="http://www.w3.org/2000/svg">
<path d="M66.6079 78.4118C68.1732 78.4118 69.6744 77.79 70.7813 76.6831C71.8881 75.5763 72.5099 74.0751 72.5099 72.5098V26.2679C72.5105 25.4892 72.357 24.7179 72.0582 23.9987C71.7594 23.2795 71.3212 22.6266 70.7688 22.0776L58.0206 9.32932C57.4715 8.77699 56.8186 8.33879 56.0994 8.03997C55.3802 7.74115 54.609 7.58763 53.8302 7.58824H19.3923C17.827 7.58824 16.3258 8.21006 15.2189 9.31689C14.1121 10.4237 13.4903 11.9249 13.4903 13.4902V72.5098C13.4903 74.0751 14.1121 75.5763 15.2189 76.6831C16.3258 77.79 17.827 78.4118 19.3923 78.4118H66.6079ZM59.2305 60.7059C59.2228 61.2905 58.9872 61.849 58.5738 62.2624C58.1604 62.6758 57.6019 62.9115 57.0173 62.9191H28.2452C27.6582 62.9191 27.0953 62.6859 26.6802 62.2709C26.2651 61.8558 26.032 61.2929 26.032 60.7059C26.032 60.1189 26.2651 59.556 26.6802 59.1409C27.0953 58.7258 27.6582 58.4927 28.2452 58.4927H57.0173C57.6019 58.5003 58.1604 58.7359 58.5738 59.1493C58.9872 59.5628 59.2228 60.1213 59.2305 60.7059ZM26.7697 48.3413L36.3899 38.6916C36.859 38.2134 37.4769 37.9091 38.1419 37.8287C38.8069 37.7482 39.4795 37.8964 40.0491 38.2489L44.9773 41.1999C45.1029 41.3005 45.259 41.3553 45.4199 41.3553C45.5808 41.3553 45.7369 41.3005 45.8625 41.1999L53.24 33.852C53.5045 33.5431 53.8301 33.2922 54.1962 33.115C54.5623 32.9379 54.9611 32.8384 55.3675 32.8227C55.7739 32.807 56.1792 32.8755 56.5579 33.0238C56.9365 33.1722 57.2805 33.3972 57.5681 33.6848C57.8556 33.9724 58.0807 34.3163 58.229 34.695C58.3774 35.0737 58.4459 35.4789 58.4302 35.8854C58.4145 36.2918 58.3149 36.6905 58.1378 37.0566C57.9607 37.4228 57.7098 37.7483 57.4009 38.0129L48.0168 47.4265C47.5516 47.8905 46.9449 48.1861 46.2927 48.2663C45.6406 48.3464 44.9803 48.2067 44.4166 47.8691L39.4884 44.9181C39.3628 44.8176 39.2067 44.7628 39.0458 44.7628C38.8849 44.7628 38.7288 44.8176 38.6031 44.9181L31.0191 52.5022C30.4546 52.9856 29.7284 53.2382 28.9857 53.2095C28.243 53.1809 27.5385 52.873 27.013 52.3474C26.4874 51.8219 26.1795 51.1174 26.1509 50.3747C26.1222 49.632 26.3748 48.9058 26.8582 48.3413H26.7697Z" fill="url(#paint0_linear_1_70)"/>
<defs>
<linearGradient id="paint0_linear_1_70" x1="43.0001" y1="7.58824" x2="43.0001" y2="75.2377" gradientUnits="userSpaceOnUse">
<stop stop-color="#19FB9B"/>
<stop offset="1" stop-color="#19FB66"/>
</linearGradient>
</defs>
</svg>
