<svg width="27" height="35" viewBox="0 0 27 35" fill="none" xmlns="http://www.w3.org/2000/svg">
<path fill-rule="evenodd" clip-rule="evenodd" d="M26.047 14.3529C26.5863 10.7422 23.8371 8.80119 20.078 7.50632L21.2974 2.61516L18.3193 1.87318L17.1321 6.63544C16.3503 6.44041 15.5464 6.25639 14.7476 6.07408L15.9433 1.28044L12.9677 0.538452L11.7474 5.42792C11.0996 5.28037 10.4636 5.13451 9.84627 4.98103L9.84966 4.96577L5.74374 3.94056L4.95172 7.12049C4.95172 7.12049 7.16071 7.62673 7.11407 7.65811C8.3199 7.95914 8.53868 8.75709 8.50137 9.38969L7.11238 14.9618C7.19548 14.983 7.30317 15.0135 7.42189 15.061L7.10814 14.983L5.16032 22.7887C5.01278 23.155 4.63882 23.7045 3.79592 23.4959C3.8256 23.5391 1.63187 22.9557 1.63187 22.9557L0.153839 26.3646L4.02912 27.3304C4.4666 27.4401 4.89876 27.5528 5.32619 27.6643L5.32745 27.6647C5.60382 27.7368 5.87821 27.8084 6.15077 27.8782L4.91865 32.8262L7.89252 33.5682L9.11362 28.6736C9.92513 28.8941 10.7138 29.0976 11.4854 29.2893L10.2694 34.1609L13.2467 34.9029L14.4788 29.9651C19.5557 30.9259 23.3741 30.5384 24.9794 25.9474C26.2742 22.2502 24.9158 20.1175 22.2446 18.726C24.1899 18.2757 25.6552 16.9961 26.0461 14.3529H26.047ZM19.2436 23.8919C18.3984 27.2852 13.0858 25.8812 10.6572 25.2393L10.657 25.2393C10.4396 25.1818 10.2453 25.1305 10.0795 25.0892L11.7144 18.5352C11.9172 18.5858 12.165 18.6414 12.4457 18.7044C14.9582 19.2682 20.1071 20.4236 19.2445 23.8919H19.2436ZM12.9507 15.6631C14.9771 16.2037 19.3942 17.3821 20.1637 14.2995C20.9503 11.1459 16.6552 10.1954 14.5575 9.73122C14.3217 9.67903 14.1137 9.63299 13.9437 9.59066L12.4614 15.535C12.6017 15.57 12.7663 15.6139 12.9507 15.6631Z" fill="#F7931A"/>
</svg>
