<svg width="38" height="35" viewBox="0 0 38 35" fill="none" xmlns="http://www.w3.org/2000/svg">
<path fill-rule="evenodd" clip-rule="evenodd" d="M18.1617 0.956055H7.24012V15.4616H0.576935V20.2967H7.24012V34.8022H18.1617C23.9265 34.8022 25.1686 34.1985 27.653 32.991C27.8458 32.8973 28.0462 32.7999 28.2567 32.6989C31.1792 31.2967 33.4503 29.3224 35.0702 26.7758C36.6901 24.2293 37.5 21.2638 37.5 17.8791C37.5 14.4945 36.6901 11.529 35.0702 8.98243C33.4503 6.4359 31.1792 4.46156 28.2567 3.05935C25.3343 1.65715 21.9693 0.956055 18.1617 0.956055ZM15.3562 20.2967V28.3714H17.7609C21.2679 28.3714 24.0651 27.4286 26.1526 25.5429C28.24 23.6571 29.2838 21.1026 29.2838 17.8791C29.2838 14.6557 28.24 12.1011 26.1526 10.2154C24.0651 8.32967 21.2679 7.38682 17.7609 7.38682H15.3562V15.4616H23.1216V20.2967H15.3562Z" fill="#F04086"/>
</svg>
