<svg width="23" height="44" viewBox="0 0 23 44" fill="none" xmlns="http://www.w3.org/2000/svg">
<path fill-rule="evenodd" clip-rule="evenodd" d="M0.76923 19.9262L11.5827 12.8971L22.3077 19.9699L11.5355 0.461548L0.76923 19.9262ZM1.18173 21.9563L11.5944 15.0946L21.8716 21.9054L11.6003 28.7744L1.18173 21.9563ZM0.76923 23.921C4.56424 26.4096 8.52426 29.0146 11.5827 31.0302L22.3077 23.921C18.4243 31.0447 15.1891 36.9751 11.5827 43.5385L9.37055 39.5287L9.37053 39.5286C6.39966 34.1438 3.33602 28.5909 0.76923 23.921Z" fill="#3AB83A"/>
<path fill-rule="evenodd" clip-rule="evenodd" d="M11.5385 0.461548L11.5789 12.8971L22.3077 19.9699L11.5385 0.461548ZM11.589 15.0946L21.934 21.9054L11.594 28.7744L11.589 15.0946ZM11.5789 31.0302L22.3077 23.921C18.98 31.0447 11.5789 43.5385 11.5789 43.5385V31.0302Z" fill="#0B8311"/>
</svg>
