<svg width="58" height="58" viewBox="0 0 58 58" fill="none" xmlns="http://www.w3.org/2000/svg">
<path fill-rule="evenodd" clip-rule="evenodd" d="M28.9999 5.14813C28.8614 5.14813 28.7265 5.1924 28.6149 5.27449L18.9659 13.3114C18.8609 13.4071 18.723 13.4588 18.5809 13.4557H12.9503C12.826 13.4591 12.7038 13.4239 12.6004 13.3549C12.497 13.286 12.4175 13.1867 12.3728 13.0707C12.3371 12.9518 12.3363 12.8251 12.3704 12.7057C12.4045 12.5863 12.4721 12.4791 12.5653 12.397L25.9199 1.25605C26.7847 0.535783 27.8745 0.141357 28.9999 0.141357C30.1254 0.141357 31.2152 0.535783 32.0799 1.25605L45.4106 12.397C45.5037 12.4791 45.5713 12.5863 45.6054 12.7057C45.6396 12.8251 45.6387 12.9518 45.6031 13.0707C45.5584 13.1867 45.4789 13.286 45.3754 13.3549C45.272 13.4239 45.1498 13.4591 45.0256 13.4557H39.3949C39.2528 13.4588 39.115 13.4071 39.0099 13.3114L29.3849 5.27449C29.2734 5.1924 29.1385 5.14813 28.9999 5.14813ZM57.8755 18.8022C57.8769 17.705 57.5033 16.6395 56.8155 15.7829C56.1136 14.9088 55.1285 14.3071 54.0304 14.0818C52.9322 13.8564 51.7898 14.0216 50.8003 14.5486C49.8109 15.0757 49.0365 15.9317 48.6109 16.9688H9.38901C8.98221 15.9533 8.24156 15.1067 7.28913 14.5685C6.3367 14.0304 5.22933 13.8328 4.14954 14.0083C3.06975 14.1838 2.08198 14.7219 1.34903 15.534C0.616073 16.3462 0.181679 17.3838 0.117439 18.4758C0.0531997 19.5679 0.362949 20.6493 0.995635 21.5417C1.62832 22.4342 2.54619 23.0844 3.59795 23.3853C4.64972 23.6862 5.77261 23.6198 6.78157 23.197C7.79053 22.7742 8.62533 22.0203 9.14839 21.0595V42.4269C9.1771 43.4735 9.4459 44.4995 9.93403 45.4257C10.4222 46.3519 11.1166 47.1536 11.9637 47.7688L25.9921 56.9848C26.8916 57.5433 27.9292 57.8393 28.9879 57.8393C30.0466 57.8393 31.0843 57.5433 31.9837 56.9848L46.0362 47.7448C46.8708 47.1394 47.5576 46.3531 48.0451 45.4446C48.5327 44.5362 48.8083 43.5292 48.8515 42.4991V21.1557C49.371 22.0953 50.1899 22.8342 51.1777 23.2548C52.1655 23.6754 53.2657 23.7536 54.3031 23.477C55.3405 23.2004 56.2556 22.5847 56.9028 21.7281C57.5395 20.8855 57.881 19.8573 57.8755 18.8022ZM36.4693 43.3449C36.5248 43.0849 36.496 42.8139 36.3871 42.5713L34.2456 37.5663C34.1949 37.4474 34.184 37.3152 34.2143 37.1895C34.2446 37.0639 34.3147 36.9513 34.414 36.8685L38.264 33.4757C38.4507 33.3145 38.5822 33.0988 38.6399 32.859C38.6976 32.6191 38.6786 32.3672 38.5856 32.1388C38.4926 31.9103 38.3303 31.7167 38.1216 31.5853C37.9128 31.4539 37.668 31.3913 37.4218 31.4063H33.1868C33.0694 31.4067 32.9545 31.3728 32.8561 31.3086C32.7578 31.2445 32.6804 31.153 32.6334 31.0454L30.2271 25.6554C30.1194 25.4486 29.9569 25.2753 29.7575 25.1544C29.5581 25.0334 29.3294 24.9695 29.0962 24.9695C28.863 24.9695 28.6343 25.0334 28.4349 25.1544C28.2355 25.2753 28.073 25.4486 27.9653 25.6554L25.559 31.0454C25.5121 31.153 25.4346 31.2445 25.3363 31.3086C25.2379 31.3728 25.123 31.4067 25.0056 31.4063H20.5781C20.3082 31.3601 20.0307 31.4092 19.7932 31.5452C19.5556 31.6812 19.3727 31.8957 19.276 32.1518C19.1792 32.4079 19.1746 32.6896 19.2629 32.9488C19.3512 33.2079 19.527 33.4282 19.76 33.5719L23.61 37.061C23.7022 37.1488 23.7654 37.2627 23.7912 37.3874C23.817 37.512 23.8041 37.6416 23.7543 37.7588L21.6128 42.5713C21.5148 42.816 21.495 43.0849 21.5562 43.3413C21.6173 43.5976 21.7563 43.8287 21.9542 44.0028C22.152 44.1769 22.3989 44.2854 22.6609 44.3135C22.923 44.3415 23.1873 44.2877 23.4175 44.1594L28.7112 41.1757C28.7959 41.1167 28.8967 41.0851 29 41.0851C29.1032 41.0851 29.204 41.1167 29.2887 41.1757L34.6065 44.1594C34.8351 44.2953 35.101 44.3547 35.3657 44.3292C35.6304 44.3037 35.88 44.1945 36.0785 44.0175C36.2769 43.8405 36.4138 43.6049 36.4693 43.3449Z" fill="url(#paint0_linear_1_167)"/>
<defs>
<linearGradient id="paint0_linear_1_167" x1="12.5283" y1="9.33477" x2="42.3061" y2="49.8769" gradientUnits="userSpaceOnUse">
<stop stop-color="#9A42FE"/>
<stop offset="1" stop-color="#23EF9B"/>
</linearGradient>
</defs>
</svg>
