<svg width="315" height="196" viewBox="0 0 315 196" fill="none" xmlns="http://www.w3.org/2000/svg">
<g opacity="0.5" clip-path="url(#clip0_1_113)">
<path d="M109.124 186.018L0.932129 111.834L110.982 171.024L147.666 111.834L111.967 185.267C111.449 186.333 110.102 186.688 109.124 186.018Z" fill="url(#paint0_linear_1_113)"/>
<path fill-rule="evenodd" clip-rule="evenodd" d="M44.8312 37.0898C45.4858 36.0278 46.8426 35.404 48.1429 35.9569C51.2628 37.284 55.9928 40.7024 57.7463 47.2123C57.7463 47.2123 57.7463 47.2123 57.7463 47.2123C59.6754 54.3725 70.7734 86.1536 76.0981 101.194C76.2766 101.698 76.012 102.251 75.507 102.429C75.002 102.608 74.4479 102.343 74.2694 101.839C68.9625 86.8495 57.8274 54.9686 55.8732 47.7154C54.3146 41.9291 50.1151 38.901 47.3828 37.7388C47.3827 37.7387 47.3828 37.7388 47.3828 37.7388C47.1127 37.624 46.7232 37.7157 46.4832 38.1048L2.19347 109.997C1.90354 110.467 2.0662 111.084 2.55055 111.351L109.714 170.445C110.173 170.698 110.749 170.542 111.017 170.092L152.716 99.9513L152.737 99.9217C152.976 99.5806 153.121 99.0413 152.834 98.473C152.529 97.8721 151.619 96.9906 149.16 96.3161L149.159 96.3159C149.049 96.2854 148.92 96.2783 148.786 96.3005L84.3557 106.976C83.8273 107.063 83.3279 106.707 83.2402 106.179C83.1525 105.651 83.5098 105.153 84.0382 105.065L148.468 94.3898C148.859 94.3252 149.273 94.3382 149.675 94.4488C149.675 94.4487 149.674 94.4486 149.674 94.4485L149.417 95.3823L149.675 94.4488C152.358 95.185 153.9 96.2872 154.564 97.599C155.236 98.9252 154.887 100.211 154.349 100.999L154.365 100.971L153.531 100.477L154.326 101.032C154.334 101.021 154.341 101.01 154.349 100.999L112.685 171.081C111.882 172.43 110.152 172.899 108.776 172.14L1.6131 113.047C0.159455 112.246 -0.32863 110.394 0.541409 108.982L44.8312 37.0898Z" fill="url(#paint1_linear_1_113)"/>
<path fill-rule="evenodd" clip-rule="evenodd" d="M81.3992 103.392C81.22 103.031 80.8428 102.821 80.4462 102.857L80.446 102.857C64.7787 104.277 33.6028 106.907 24.6837 106.907C15.7979 106.907 8.41228 110.528 5.89676 112.287C5.45801 112.593 4.85328 112.487 4.54606 112.049C4.23883 111.611 4.34546 111.007 4.78421 110.7C7.56504 108.756 15.3316 104.97 24.6837 104.97C33.491 104.97 64.5518 102.353 80.2705 100.929C81.4691 100.82 82.6033 101.459 83.1363 102.53L108.106 152.722C108.834 154.184 109.795 156.695 110.365 159.56C110.933 162.416 111.131 165.716 110.239 168.704C110.086 169.217 109.546 169.508 109.033 169.356C108.52 169.203 108.228 168.663 108.381 168.151C109.147 165.585 108.999 162.636 108.462 159.937C107.927 157.247 107.023 154.898 106.369 153.584L81.3992 103.392Z" fill="url(#paint2_linear_1_113)"/>
<path fill-rule="evenodd" clip-rule="evenodd" d="M129.87 25.3673C129.693 25.0263 129.331 24.8222 128.947 24.8467L128.947 24.8467L102.633 26.5314C102.099 26.5656 101.638 26.1607 101.603 25.627C101.569 25.0932 101.975 24.6328 102.509 24.5986L128.823 22.9139C128.823 22.9139 128.823 22.9139 128.823 22.9139C129.974 22.8402 131.061 23.453 131.592 24.4756L131.592 24.4757L136.561 34.0435C136.808 34.5183 136.622 35.1028 136.147 35.349C135.671 35.5952 135.086 35.41 134.839 34.9352L129.87 25.3674C129.87 25.3673 129.87 25.3673 129.87 25.3673Z" fill="url(#paint3_linear_1_113)"/>
<path fill-rule="evenodd" clip-rule="evenodd" d="M57.9088 14.5189C57.4164 14.3851 56.905 14.6548 56.7379 15.1352L49.7097 35.3324C49.5339 35.8376 48.9812 36.1048 48.4753 35.9293C47.9693 35.7538 47.7017 35.2019 47.8775 34.6967L54.9055 14.5001C54.9056 14.5 54.9055 14.5001 54.9055 14.5001C55.4074 13.0571 56.9426 12.249 58.4184 12.6502L156.107 39.2142C156.624 39.3548 156.929 39.887 156.788 40.4031C156.647 40.9191 156.114 41.2235 155.598 41.083L57.9088 14.5189C57.9088 14.5189 57.9089 14.5189 57.9088 14.5189Z" fill="url(#paint4_linear_1_113)"/>
<path fill-rule="evenodd" clip-rule="evenodd" d="M158.658 66.8917C159.17 67.0498 159.456 67.5922 159.298 68.1031L151.111 94.5135C150.953 95.0244 150.41 95.3104 149.898 95.1523C149.386 94.9941 149.1 94.4518 149.258 93.9409L157.445 67.5305C157.603 67.0196 158.146 66.7336 158.658 66.8917Z" fill="url(#paint5_linear_1_113)"/>
<path fill-rule="evenodd" clip-rule="evenodd" d="M80.3461 63.2762C80.4228 62.9645 80.738 62.7741 81.0501 62.8507L119.465 72.2831C119.777 72.3597 119.968 72.6744 119.891 72.9861C119.815 73.2977 119.5 73.4882 119.187 73.4115L80.7722 63.9791C80.4601 63.9025 80.2694 63.5878 80.3461 63.2762Z" fill="url(#paint6_linear_1_113)"/>
<path fill-rule="evenodd" clip-rule="evenodd" d="M72.1614 69.5574C72.242 69.2468 72.5596 69.0603 72.8707 69.1408L123.881 82.346C124.192 82.4265 124.379 82.7436 124.298 83.0543C124.217 83.3649 123.9 83.5514 123.589 83.4709L72.5786 70.2657C72.2675 70.1851 72.0807 69.868 72.1614 69.5574Z" fill="url(#paint7_linear_1_113)"/>
<path fill-rule="evenodd" clip-rule="evenodd" d="M80.3428 79.6394C80.4119 79.326 80.7223 79.1279 81.0362 79.1968L112.524 86.1137C112.838 86.1827 113.036 86.4926 112.967 86.806C112.898 87.1194 112.588 87.3176 112.274 87.2487L80.7861 80.3317C80.4723 80.2628 80.2738 79.9528 80.3428 79.6394Z" fill="url(#paint8_linear_1_113)"/>
<path fill-rule="evenodd" clip-rule="evenodd" d="M161.563 46.7789C158.029 46.8288 155.308 47.6511 153.631 49.3721L152.936 48.6967L153.631 49.3721C151.905 51.1431 151.528 52.8995 151.933 54.6268C152.357 56.4367 153.671 58.3357 155.595 60.2084C159.416 63.9275 165.272 67.1875 169.547 69.0571C175.165 70.748 180.095 74.0956 184.724 78.0558C187.816 80.701 190.826 83.6681 193.825 86.6244C195.31 88.088 196.792 89.5489 198.28 90.9668C207.352 99.6117 216.856 106.873 230.079 105.712C230.612 105.666 231.083 106.059 231.13 106.592C231.177 107.125 230.782 107.595 230.249 107.642C216.112 108.883 206.05 101.049 196.941 92.3679C195.4 90.8994 193.891 89.4122 192.395 87.9365C189.427 85.0103 186.504 82.1289 183.462 79.5266C178.908 75.6308 174.202 72.4693 168.934 70.8955L168.878 70.8787L168.824 70.8552C164.447 68.947 158.318 65.5629 154.241 61.5953C152.209 59.617 150.592 57.4033 150.044 55.0683C149.478 52.6508 150.088 50.2301 152.241 48.0213L152.241 48.0213C154.442 45.7626 157.787 44.8953 161.535 44.8423C165.304 44.7891 169.651 45.555 174.064 46.7501C182.896 49.1418 192.194 53.3087 198.065 56.4184L198.08 56.4263L198.094 56.4347C201.416 58.3456 210.083 60.4474 217.718 53.1438C218.105 52.7738 218.719 52.787 219.09 53.1732C219.46 53.5594 219.447 54.1724 219.06 54.5424C210.638 62.5983 200.986 60.3248 197.141 58.1216C191.352 55.0566 182.2 50.9601 173.556 48.6193C169.227 47.4471 165.076 46.7292 161.563 46.7789Z" fill="url(#paint9_linear_1_113)"/>
<path fill-rule="evenodd" clip-rule="evenodd" d="M176.91 46.7456C193.23 40.3468 207.842 47.5481 213.153 51.9823C213.564 52.3253 213.618 52.9361 213.275 53.3464C212.931 53.7566 212.32 53.8111 211.909 53.4681C206.948 49.3263 193.073 42.4891 177.619 48.5484C177.12 48.7438 176.557 48.4988 176.362 48.0009C176.166 47.5031 176.411 46.9411 176.91 46.7456Z" fill="url(#paint10_linear_1_113)"/>
<path fill-rule="evenodd" clip-rule="evenodd" d="M210.834 27.0896C207.715 25.4809 201.446 24.1398 192.536 24.9721C183.581 25.8087 171.898 28.845 157.925 36.0841C157.45 36.3304 157.264 36.9149 157.511 37.3896C157.758 37.8643 158.343 38.0495 158.818 37.8032C172.596 30.6653 184.039 27.7112 192.717 26.9005C201.424 26.087 207.289 27.4351 209.957 28.8176L209.974 28.8263L209.991 28.8343C218.064 32.6261 236.489 40.8266 245.197 43.0655C246.978 43.5232 248.885 45.2845 250.813 48.1861C252.711 51.0418 254.505 54.8112 256.131 58.9491C259.38 67.2188 261.899 76.8058 263.222 83.1071C263.332 83.6305 263.846 83.9659 264.37 83.8562C264.894 83.7465 265.23 83.2333 265.12 82.7098C263.783 76.3389 261.237 66.6414 257.936 58.2417C256.287 54.0449 254.435 50.1334 252.429 47.1153C250.454 44.1433 248.202 41.838 245.681 41.1899L245.439 42.1277L245.681 41.1899C237.19 39.0067 218.957 30.9043 210.834 27.0896Z" fill="url(#paint11_linear_1_113)"/>
<path fill-rule="evenodd" clip-rule="evenodd" d="M208.756 5.85564C209.855 5.9069 210.61 6.67723 211.044 7.74397L210.145 8.10839L211.044 7.74397C212.288 10.8008 215.075 15.8339 218.194 20.887C221.309 25.9326 224.705 30.9167 227.135 33.8752C227.475 34.2887 227.414 34.8989 227 35.2381C226.586 35.5773 225.975 35.517 225.635 35.1035C223.123 32.0454 219.675 26.9756 216.543 21.9033C213.417 16.8384 210.555 11.6893 209.247 8.47285L209.247 8.47282C208.975 7.80471 208.73 7.79328 208.666 7.79029L208.666 7.79028C208.467 7.781 208.049 7.91083 207.427 8.44958C206.226 9.48869 204.888 11.5113 203.979 13.6876C203.773 14.1813 203.206 14.4148 202.711 14.2091C202.217 14.0034 201.983 13.4364 202.189 12.9427C203.164 10.6065 204.65 8.29013 206.156 6.98618C206.887 6.3534 207.793 5.81068 208.756 5.85564ZM210.145 8.10839L210.145 8.10871L210.145 8.10839Z" fill="url(#paint12_linear_1_113)"/>
<path fill-rule="evenodd" clip-rule="evenodd" d="M190.465 0.245217C191.98 -0.00710705 193.396 0.660832 194.437 2.21349C197.43 6.67872 210.808 22.393 217.635 29.4131C218.008 29.7968 217.999 30.4099 217.615 30.7824C217.231 31.155 216.617 31.146 216.243 30.7623C209.386 23.7109 195.914 7.89924 192.825 3.29068L192.825 3.29064C192.126 2.24815 191.412 2.05105 190.785 2.15556C190.049 2.27806 189.167 2.86148 188.352 3.90832C186.722 6.00457 185.818 9.36948 186.881 12.0884C187.076 12.5866 186.829 13.1482 186.33 13.3427C185.831 13.5372 185.269 13.291 185.074 12.7928C183.702 9.28343 184.885 5.20891 186.82 2.7204C187.789 1.47486 189.059 0.479558 190.465 0.245217Z" fill="url(#paint13_linear_1_113)"/>
<path fill-rule="evenodd" clip-rule="evenodd" d="M172.164 10.022C172.898 9.64552 173.812 9.5595 174.843 9.6717C176.846 9.88968 179.544 10.7313 182.539 11.9018C185.554 13.0806 188.945 14.6238 192.361 16.2944C199.192 19.6359 206.165 23.5101 210.503 26.0603C210.965 26.3316 211.119 26.9252 210.847 27.3861C210.576 27.847 209.981 28.0007 209.52 27.7294C205.213 25.1982 198.284 21.3487 191.507 18.0336C188.118 16.3759 184.779 14.8575 181.831 13.7052C178.863 12.5446 176.365 11.7856 174.633 11.5971C173.796 11.506 173.314 11.6098 173.051 11.7446C172.832 11.8572 172.695 12.025 172.621 12.3267C172.537 12.668 172.542 13.1709 172.689 13.8546C172.834 14.5272 173.102 15.3081 173.476 16.17C174.978 19.6413 177.994 24.0005 180.341 26.9728C180.673 27.3927 180.601 28.0016 180.18 28.3328C179.759 28.664 179.15 28.592 178.818 28.172C176.439 25.1595 173.299 20.6432 171.695 16.9385C171.292 16.0063 170.974 15.0994 170.793 14.2622C170.615 13.436 170.555 12.607 170.737 11.866C170.928 11.0855 171.387 10.4206 172.164 10.022Z" fill="url(#paint14_linear_1_113)"/>
<path d="M70.7249 50.0067C70.6233 50.066 70.4564 50.1005 70.2248 50.1102C70.0064 50.1233 69.8373 50.1136 69.717 50.0811C69.6104 50.0521 69.5638 50.0106 69.5782 49.9568C70.2939 48.2838 70.8932 46.5364 71.3766 44.714C72.2359 41.4738 72.8011 38.5595 73.0723 35.9706L73.6902 35.7472L75.2466 37.167C74.6034 39.3224 73.8357 41.7046 72.9435 44.3134C72.0547 46.9087 71.3153 48.8063 70.7249 50.0067Z" fill="url(#paint15_linear_1_113)"/>
<path d="M74.5503 50.8689C75.3222 49.2544 75.8925 47.7523 76.261 46.3617C76.63 44.9715 76.8359 43.9779 76.8794 43.3822C76.9399 42.7764 76.962 42.2616 76.9454 41.8374C76.9422 41.4168 76.9415 41.1778 76.9422 41.1204L77.504 40.9469L78.9176 42.176C78.8171 42.9879 78.6969 43.6572 78.5572 44.1836C78.4175 44.71 78.3089 45.0931 78.231 45.3325C79.086 44.3773 79.9417 43.6615 80.7983 43.1842C81.6552 42.7074 82.371 42.5467 82.9455 42.702C84.0542 43.0022 84.4064 43.9152 84.0018 45.4406C83.6868 46.6286 83.1957 48.0223 82.5281 49.6213C81.8643 51.2067 81.4446 52.2215 81.2696 52.6662C81.059 52.8119 80.7401 52.8266 80.3126 52.7108C80.2191 52.6856 80.1776 52.6527 80.1884 52.6124C80.8472 50.9386 81.3305 49.5213 81.6382 48.36C82.2003 46.2408 82.0874 45.0741 81.2987 44.8607C80.6978 44.698 79.9456 45.0226 79.0429 45.8345C78.1538 46.6499 77.2704 47.901 76.3937 49.5879L76.3538 49.5771C75.9945 50.1748 75.7121 50.6191 75.5061 50.9104C75.2687 51.0486 75.0433 51.0889 74.8296 51.0312C74.629 50.977 74.5363 50.9228 74.5503 50.8689Z" fill="url(#paint16_linear_1_113)"/>
<path d="M94.2401 45.7168L94.1881 45.833C93.0782 46.9939 92.0006 48.3299 90.9555 49.841C89.9275 51.3423 89.1175 52.8305 88.5259 54.3052L86.6145 54.5473C86.2801 54.457 86.0516 54.2936 85.9279 54.0577C85.7537 52.824 85.6893 51.3667 85.7339 49.686C85.7956 47.9956 86.0001 46.4954 86.3472 45.1858C86.4978 44.6191 86.6529 44.169 86.8128 43.8362L87.4051 43.6274L88.7935 44.8716C88.2846 45.8191 87.8602 46.9339 87.52 48.2164C87.1836 49.4854 86.94 51.1053 86.7899 53.0757C87.5425 51.8037 88.541 50.4677 89.7859 49.0686C91.0338 47.6555 92.1934 46.5229 93.2644 45.6696C93.5686 45.5495 93.8809 45.5328 94.2017 45.6196C94.2416 45.6304 94.2544 45.6626 94.2401 45.7168Z" fill="url(#paint17_linear_1_113)"/>
<path d="M97.1814 47.1206C97.1007 47.5331 97.0029 47.9549 96.8885 48.3872C96.2655 50.7361 95.1723 53.2109 93.6093 55.8116C93.3719 55.9502 93.093 55.9758 92.7725 55.889C92.7054 55.8708 92.6604 55.8515 92.6375 55.8309C92.6278 55.8135 92.6329 55.7934 92.6534 55.7701C93.4863 53.9263 94.1171 52.1945 94.5469 50.5746C94.9764 48.9547 95.1959 47.4513 95.2056 46.065L95.7674 45.8915L97.1814 47.1206ZM96.8912 44.8937C96.5572 44.803 96.3272 44.6179 96.2007 44.3374C96.0882 44.0612 96.0781 43.7475 96.1712 43.3962C96.2643 43.0452 96.4986 42.7834 96.8737 42.6098C97.2528 42.4231 97.747 42.3689 98.356 42.4468C98.6675 42.893 98.7606 43.3524 98.6353 43.8246C98.5135 44.2836 98.2784 44.6035 97.9297 44.784C97.5848 44.951 97.2384 44.9874 96.8912 44.8937Z" fill="url(#paint18_linear_1_113)"/>
<path d="M104.925 48.9783L103.948 50.2333C103.258 50.1911 102.57 50.0842 101.885 49.9133C100.679 53.4355 99.6572 55.937 98.8204 57.4179C98.6101 57.5635 98.3045 57.5821 97.9037 57.4737C97.8102 57.4481 97.7687 57.4152 97.7796 57.3749C98.5818 55.5373 99.2227 53.714 99.7026 51.9051C99.8779 51.2439 100.075 50.4215 100.292 49.4388C99.6056 49.1661 99.076 48.9213 98.704 48.7048C98.6346 48.6428 98.5834 48.484 98.5508 48.2295C98.5349 47.9646 98.5384 47.7631 98.5609 47.6245L98.6734 47.5245C99.1657 47.7736 99.7926 48.0014 100.554 48.2074C100.868 46.7006 101.059 45.6819 101.129 45.1509L101.701 44.9366L103.093 46.2471L102.345 48.5836C103.074 48.6943 103.896 48.6998 104.81 48.6002L104.925 48.9783Z" fill="url(#paint19_linear_1_113)"/>
<path d="M109.916 50.3081L111.728 50.0389L112.133 50.4526C111.345 51.643 110.724 53.0951 110.269 54.8096C110.076 55.5386 109.867 56.5674 109.644 57.896C109.421 59.2246 109.302 60.1326 109.287 60.6206C109.276 60.6609 109.17 60.6543 108.97 60.6001C108.77 60.5459 108.601 60.3987 108.464 60.1593C108.301 59.0445 108.351 57.4807 108.613 55.4681C107.694 56.6661 106.727 57.5834 105.713 58.2206C104.713 58.8613 103.898 59.0968 103.27 58.9267C102.068 58.601 101.669 57.6756 102.074 56.1502C102.306 55.2724 102.704 54.4761 103.266 53.7598C103.828 53.044 104.483 52.4618 105.232 52.0137C106.727 51.1305 108.288 50.5619 109.916 50.3081ZM104.997 56.7897C105.425 56.9055 105.99 56.6898 106.694 56.1421C107.414 55.585 108.15 54.7278 108.901 53.5708C108.938 53.3783 109.028 53.0119 109.171 52.4719C109.314 51.9319 109.426 51.5357 109.507 51.2827C108.183 51.6333 107.067 52.0904 106.158 52.6547C105.253 53.2055 104.666 53.9872 104.398 54.9998C104.129 56.0123 104.329 56.6088 104.997 56.7897Z" fill="url(#paint20_linear_1_113)"/>
<path d="M119.525 52.9313L118.548 54.1859C117.858 54.1437 117.17 54.0372 116.485 53.8663C115.279 57.3885 114.257 59.8901 113.421 61.3709C113.21 61.5165 112.905 61.5351 112.504 61.4263C112.41 61.4011 112.369 61.3682 112.38 61.3279C113.182 59.4903 113.823 57.667 114.303 55.8581C114.478 55.1965 114.675 54.3745 114.892 53.3918C114.206 53.1191 113.676 52.8743 113.304 52.6578C113.235 52.5954 113.184 52.437 113.151 52.1821C113.135 51.9176 113.139 51.7158 113.161 51.5775L113.274 51.4775C113.766 51.7266 114.393 51.9544 115.155 52.1604C115.468 50.6536 115.66 49.6349 115.729 49.1039L116.301 48.8896L117.694 50.2001L116.945 52.5366C117.675 52.6474 118.497 52.6528 119.411 52.5532L119.525 52.9313Z" fill="url(#paint21_linear_1_113)"/>
<path d="M122.702 54.0301C122.622 54.4422 122.524 54.8645 122.41 55.2964C121.787 57.6456 120.693 60.1204 119.13 62.7211C118.893 62.8594 118.614 62.8853 118.294 62.7986C118.227 62.7804 118.182 62.761 118.159 62.7405C118.149 62.723 118.154 62.7029 118.175 62.6797C119.007 60.8359 119.638 59.104 120.068 57.4841C120.498 55.8642 120.717 54.3609 120.727 52.9746L121.289 52.801L122.702 54.0301ZM122.412 51.8028C122.078 51.7126 121.848 51.5274 121.722 51.247C121.609 50.9708 121.599 50.657 121.692 50.3057C121.786 49.9548 122.02 49.6929 122.395 49.5194C122.774 49.3327 123.268 49.2785 123.877 49.3563C124.189 49.8025 124.282 50.2616 124.157 50.7341C124.035 51.1931 123.8 51.5131 123.451 51.6936C123.106 51.8605 122.76 51.8969 122.412 51.8028Z" fill="url(#paint22_linear_1_113)"/>
<path d="M132.31 56.3927L131.053 57.246C131.557 58.3666 131.625 59.622 131.257 61.0126C130.737 62.9699 129.717 64.307 128.195 65.0236C127.394 65.3998 126.512 65.4579 125.55 65.1976C124.601 64.9404 123.888 64.3353 123.411 63.3813C122.947 62.4307 122.894 61.2807 123.252 59.9307C123.628 58.513 124.491 57.3649 125.841 56.486C126.55 56.027 127.452 55.7287 128.549 55.5912C129.658 55.4576 130.889 55.5161 132.24 55.7659L132.31 56.3927ZM126.339 63.4359C127.154 63.6567 127.922 63.4882 128.643 62.9312C129.377 62.3772 129.844 61.7226 130.045 60.9665C130.478 59.3331 130.445 57.9715 129.946 56.8815C128.871 56.7785 127.879 57.0089 126.971 57.5733C126.062 58.1377 125.481 58.8988 125.226 59.8575C124.972 60.8158 124.941 61.6103 125.131 62.2409C125.335 62.875 125.738 63.2732 126.339 63.4359Z" fill="url(#paint23_linear_1_113)"/>
<path d="M132.384 66.5265C133.156 64.9124 133.726 63.4103 134.095 62.0197C134.464 60.6291 134.669 59.6359 134.713 59.0402C134.773 58.4343 134.796 57.9192 134.779 57.4954C134.776 57.0747 134.775 56.8357 134.776 56.778L135.338 56.6045L136.752 57.8339C136.651 58.6458 136.53 59.3152 136.391 59.8416C136.251 60.368 136.142 60.7511 136.065 60.9905C136.919 60.0353 137.775 59.3191 138.632 58.8422C139.489 58.365 140.204 58.2043 140.779 58.36C141.888 58.6602 142.24 59.5732 141.836 61.0985C141.521 62.2866 141.029 63.6799 140.362 65.2788C139.698 66.8647 139.279 67.8795 139.103 68.3242C138.893 68.4695 138.574 68.4846 138.146 68.3688C138.053 68.3436 138.012 68.3106 138.022 68.27C138.681 66.5962 139.164 65.1789 139.472 64.018C140.034 61.8984 139.921 60.7321 139.133 60.5187C138.531 60.356 137.78 60.6806 136.877 61.4925C135.987 62.3079 135.104 63.559 134.227 65.2459L134.187 65.2351C133.828 65.8324 133.546 66.2767 133.34 66.5683C133.103 66.7066 132.877 66.7469 132.663 66.6892C132.463 66.6346 132.37 66.5807 132.384 66.5265Z" fill="url(#paint24_linear_1_113)"/>
<path fill-rule="evenodd" clip-rule="evenodd" d="M261.203 89.42C264.626 90.6495 267.741 92.6497 269.895 94.7998C270.889 95.7923 273.322 97.7953 276.68 100.426C280.019 103.04 284.221 106.236 288.713 109.595C297.698 116.315 307.824 123.677 314.479 128.333C314.917 128.64 315.024 129.244 314.716 129.682C314.409 130.12 313.804 130.226 313.365 129.919C306.69 125.248 296.546 117.873 287.551 111.146C283.052 107.782 278.837 104.576 275.483 101.95C272.15 99.3387 269.616 97.2606 268.523 96.1693C266.583 94.2321 263.716 92.3808 260.546 91.2424C257.374 90.1031 253.988 89.7085 250.974 90.5606C248 91.4013 245.283 93.4836 243.435 97.5232C241.57 101.599 240.584 107.686 241.208 116.482L240.24 116.55L241.208 116.482C241.748 124.106 245.203 132.293 250.415 140.448C255.621 148.592 262.536 156.634 269.902 163.954C284.653 178.612 301.088 190.253 308.982 193.962C309.466 194.189 309.674 194.766 309.446 195.25C309.218 195.734 308.641 195.942 308.156 195.714C299.991 191.877 283.375 180.075 268.533 165.326C261.103 157.942 254.086 149.79 248.78 141.49C243.482 133.201 239.846 124.695 239.273 116.619C238.637 107.65 239.619 101.201 241.67 96.7183C243.738 92.1999 246.886 89.7036 250.446 88.6971C253.966 87.7019 257.782 88.1915 261.203 89.42Z" fill="url(#paint25_linear_1_113)"/>
</g>
<defs>
<linearGradient id="paint0_linear_1_113" x1="74.2988" y1="111.834" x2="74.2988" y2="186.358" gradientUnits="userSpaceOnUse">
<stop stop-color="white"/>
<stop offset="1" stop-color="white" stop-opacity="0.43"/>
</linearGradient>
<linearGradient id="paint1_linear_1_113" x1="77.5216" y1="35.7512" x2="77.5216" y2="172.503" gradientUnits="userSpaceOnUse">
<stop stop-color="white"/>
<stop offset="1" stop-color="white" stop-opacity="0.43"/>
</linearGradient>
<linearGradient id="paint2_linear_1_113" x1="57.6104" y1="100.917" x2="57.6104" y2="169.396" gradientUnits="userSpaceOnUse">
<stop stop-color="white"/>
<stop offset="1" stop-color="white" stop-opacity="0.43"/>
</linearGradient>
<linearGradient id="paint3_linear_1_113" x1="119.136" y1="22.908" x2="119.136" y2="35.4579" gradientUnits="userSpaceOnUse">
<stop stop-color="white"/>
<stop offset="1" stop-color="white" stop-opacity="0.43"/>
</linearGradient>
<linearGradient id="paint4_linear_1_113" x1="102.323" y1="12.5476" x2="102.323" y2="41.1172" gradientUnits="userSpaceOnUse">
<stop stop-color="white"/>
<stop offset="1" stop-color="white" stop-opacity="0.43"/>
</linearGradient>
<linearGradient id="paint5_linear_1_113" x1="154.278" y1="66.8481" x2="154.278" y2="95.1958" gradientUnits="userSpaceOnUse">
<stop stop-color="white"/>
<stop offset="1" stop-color="white" stop-opacity="0.43"/>
</linearGradient>
<linearGradient id="paint6_linear_1_113" x1="100.119" y1="62.8337" x2="100.119" y2="73.4285" gradientUnits="userSpaceOnUse">
<stop stop-color="white"/>
<stop offset="1" stop-color="white" stop-opacity="0.43"/>
</linearGradient>
<linearGradient id="paint7_linear_1_113" x1="98.2298" y1="69.1221" x2="98.2298" y2="83.4896" gradientUnits="userSpaceOnUse">
<stop stop-color="white"/>
<stop offset="1" stop-color="white" stop-opacity="0.43"/>
</linearGradient>
<linearGradient id="paint8_linear_1_113" x1="96.6551" y1="79.1831" x2="96.6551" y2="87.2624" gradientUnits="userSpaceOnUse">
<stop stop-color="white"/>
<stop offset="1" stop-color="white" stop-opacity="0.43"/>
</linearGradient>
<linearGradient id="paint9_linear_1_113" x1="190.489" y1="44.8397" x2="190.489" y2="107.772" gradientUnits="userSpaceOnUse">
<stop stop-color="white"/>
<stop offset="1" stop-color="white" stop-opacity="0.43"/>
</linearGradient>
<linearGradient id="paint10_linear_1_113" x1="194.897" y1="44.2097" x2="194.897" y2="53.6936" gradientUnits="userSpaceOnUse">
<stop stop-color="white"/>
<stop offset="1" stop-color="white" stop-opacity="0.43"/>
</linearGradient>
<linearGradient id="paint11_linear_1_113" x1="211.271" y1="24.7177" x2="211.271" y2="83.877" gradientUnits="userSpaceOnUse">
<stop stop-color="white"/>
<stop offset="1" stop-color="white" stop-opacity="0.43"/>
</linearGradient>
<linearGradient id="paint12_linear_1_113" x1="214.735" y1="5.85303" x2="214.735" y2="35.4578" gradientUnits="userSpaceOnUse">
<stop stop-color="white"/>
<stop offset="1" stop-color="white" stop-opacity="0.43"/>
</linearGradient>
<linearGradient id="paint13_linear_1_113" x1="201.195" y1="0.193237" x2="201.195" y2="31.0561" gradientUnits="userSpaceOnUse">
<stop stop-color="white"/>
<stop offset="1" stop-color="white" stop-opacity="0.43"/>
</linearGradient>
<linearGradient id="paint14_linear_1_113" x1="190.804" y1="9.62598" x2="190.804" y2="28.5408" gradientUnits="userSpaceOnUse">
<stop stop-color="white"/>
<stop offset="1" stop-color="white" stop-opacity="0.43"/>
</linearGradient>
<linearGradient id="paint15_linear_1_113" x1="72.4111" y1="35.7472" x2="72.4111" y2="50.1158" gradientUnits="userSpaceOnUse">
<stop stop-color="white"/>
<stop offset="1" stop-color="white" stop-opacity="0.43"/>
</linearGradient>
<linearGradient id="paint16_linear_1_113" x1="79.3565" y1="40.9469" x2="79.3565" y2="52.7878" gradientUnits="userSpaceOnUse">
<stop stop-color="white"/>
<stop offset="1" stop-color="white" stop-opacity="0.43"/>
</linearGradient>
<linearGradient id="paint17_linear_1_113" x1="89.983" y1="43.6274" x2="89.983" y2="54.5473" gradientUnits="userSpaceOnUse">
<stop stop-color="white"/>
<stop offset="1" stop-color="white" stop-opacity="0.43"/>
</linearGradient>
<linearGradient id="paint18_linear_1_113" x1="95.661" y1="42.4124" x2="95.661" y2="55.9393" gradientUnits="userSpaceOnUse">
<stop stop-color="white"/>
<stop offset="1" stop-color="white" stop-opacity="0.43"/>
</linearGradient>
<linearGradient id="paint19_linear_1_113" x1="101.351" y1="44.9366" x2="101.351" y2="57.5431" gradientUnits="userSpaceOnUse">
<stop stop-color="white"/>
<stop offset="1" stop-color="white" stop-opacity="0.43"/>
</linearGradient>
<linearGradient id="paint20_linear_1_113" x1="107.027" y1="50.0389" x2="107.027" y2="60.6465" gradientUnits="userSpaceOnUse">
<stop stop-color="white"/>
<stop offset="1" stop-color="white" stop-opacity="0.43"/>
</linearGradient>
<linearGradient id="paint21_linear_1_113" x1="115.952" y1="48.8896" x2="115.952" y2="61.496" gradientUnits="userSpaceOnUse">
<stop stop-color="white"/>
<stop offset="1" stop-color="white" stop-opacity="0.43"/>
</linearGradient>
<linearGradient id="paint22_linear_1_113" x1="121.182" y1="49.3219" x2="121.182" y2="62.8487" gradientUnits="userSpaceOnUse">
<stop stop-color="white"/>
<stop offset="1" stop-color="white" stop-opacity="0.43"/>
</linearGradient>
<linearGradient id="paint23_linear_1_113" x1="127.664" y1="55.5215" x2="127.664" y2="65.3572" gradientUnits="userSpaceOnUse">
<stop stop-color="white"/>
<stop offset="1" stop-color="white" stop-opacity="0.43"/>
</linearGradient>
<linearGradient id="paint24_linear_1_113" x1="137.19" y1="56.6045" x2="137.19" y2="68.4457" gradientUnits="userSpaceOnUse">
<stop stop-color="white"/>
<stop offset="1" stop-color="white" stop-opacity="0.43"/>
</linearGradient>
<linearGradient id="paint25_linear_1_113" x1="276.986" y1="88.1644" x2="276.986" y2="195.807" gradientUnits="userSpaceOnUse">
<stop stop-color="white"/>
<stop offset="1" stop-color="white" stop-opacity="0.43"/>
</linearGradient>
<clipPath id="clip0_1_113">
<rect width="315" height="196" fill="white"/>
</clipPath>
</defs>
</svg>
