<svg width="396" height="271" viewBox="0 0 396 271" fill="none" xmlns="http://www.w3.org/2000/svg">
<g opacity="0.15">
<mask id="path-1-inside-1_148_239" fill="white">
<path fill-rule="evenodd" clip-rule="evenodd" d="M174.625 2.34987C174.087 3.85029 173.151 4.85707 172.037 5.1342C171.078 5.37381 170.293 5.82343 170.293 6.13449C170.293 6.44554 171.078 6.89516 172.037 7.13477C173.151 7.4119 174.087 8.41868 174.625 9.9191L175.468 12.269L176.411 10.0865C176.93 8.88562 178.301 7.46315 179.457 6.92475L181.56 5.9454L179.491 5.23452C178.24 4.80511 177.035 3.62945 176.445 2.26182L175.468 0L174.625 2.34987ZM86.8793 35.0503C71.2129 37.0725 56.8163 44.2001 45.6182 55.4789C36.6488 64.5131 31.1068 73.7704 27.3275 86.03C25.543 91.8188 25.3663 93.4585 25.322 104.647C25.2755 116.299 25.3794 117.237 27.3777 123.291C33.7091 142.469 52.3174 171.051 84.1912 210.554L87.5372 214.701L85.5207 215.461C81.261 217.069 61.9672 226.993 54.3412 231.498C49.9484 234.093 46.2557 236.125 46.1365 236.012C46.0165 235.898 46.2368 232.602 46.625 228.685C47.0131 224.768 47.0887 220.102 46.7929 218.316C45.6676 211.513 41.2923 205.502 34.9841 202.089C31.7501 200.339 30.0251 199.932 24.8248 199.683C19.2195 199.416 18.103 199.588 14.1994 201.327C0.73698 207.325 -4.17261 223.622 3.9325 235.403C6.29061 238.831 12.5508 245.34 18.2004 250.242L22.0312 253.564L17.11 257.708C8.82754 264.684 3.10309 269.891 3.10309 270.45C3.10236 270.744 18.9179 270.978 38.248 270.971L73.3936 270.959L78.9552 265.579C82.0526 262.583 84.5169 259.588 84.5169 258.82C84.5169 255.948 90.8447 255.651 94.0991 258.37C95.2868 259.362 96.8359 260.174 97.5403 260.174C99.0225 260.174 100.505 262.975 100.519 265.802C100.524 266.875 100.726 268.483 100.967 269.376L101.405 271H123.255H145.105L143.368 269.165C141.913 267.628 141.772 267.106 142.499 265.951C143.736 263.986 142.31 263.418 140.544 265.172C139.314 266.393 138.753 266.497 136.883 265.85C134.576 265.051 134.002 263.295 135.546 261.762C136.225 261.089 136.15 260.896 135.208 260.896C132.994 260.896 131.75 256.625 132.833 252.741C133.542 250.196 135.674 250.397 135.984 253.037C136.169 254.607 136.496 254.853 138.025 254.562C139.22 254.335 139.712 253.866 139.453 253.198C139.006 252.043 141.112 250.952 141.835 251.965C142.094 252.328 143.207 253.018 144.306 253.498C146.78 254.578 146.949 257.002 144.742 259.787C143.452 261.415 143.357 261.872 144.197 262.399C144.756 262.752 145.775 263.044 146.461 263.05C148.429 263.068 149.458 265.654 148.538 268.272C147.564 271.048 147.56 271 148.734 271C149.27 271 150.09 269.739 150.554 268.199C151.019 266.658 151.889 264.995 152.487 264.502C154.208 263.084 153.763 261.03 151.48 259.858C148.998 258.584 147.982 254.718 149.67 252.965C150.586 252.011 150.93 252.013 152.684 252.982C153.773 253.583 154.987 254.798 155.382 255.682C156.355 257.86 160.439 258.171 165.386 256.443C167.674 255.644 168.112 255.161 168.112 253.435C168.112 251.986 168.541 251.267 169.566 251.002C171.353 250.537 171.512 248.486 169.748 248.665C165.13 249.132 163.024 247.652 163.024 243.943C163.024 240.553 163.675 239.245 165.363 239.245C166.764 239.245 166.758 239.195 165.21 237.952C163.701 236.738 163.66 236.466 164.541 233.546C165.058 231.835 165.918 230.267 166.454 230.063C167.038 229.84 167.252 229.14 166.988 228.315C166.649 227.254 167.044 226.767 168.711 226.19C169.901 225.779 171.04 224.813 171.242 224.044C171.445 223.275 172.167 222.646 172.847 222.646C173.598 222.646 173.933 222.256 173.698 221.651C173.321 220.674 174.433 219.037 175.475 219.037C177.052 219.037 178.289 221.587 178.289 224.837C178.289 227.63 178.593 228.531 179.743 229.141C180.638 229.617 181.197 230.652 181.197 231.837C181.197 233.333 181.391 233.567 182.069 232.894C183.304 231.668 184.62 231.818 186.174 233.362C187.329 234.508 187.706 234.558 188.858 233.722C190.113 232.811 190.083 232.75 188.384 232.75C186.385 232.75 180.47 228.789 180.47 227.45C180.47 226.985 180.794 225.484 181.189 224.114C181.665 222.468 181.665 221.378 181.189 220.906C180.794 220.514 180.47 219.778 180.47 219.273C180.47 218.136 184.628 215.919 185.871 216.392C186.371 216.583 187.215 216.472 187.745 216.147C188.325 215.79 189.447 216.033 190.559 216.755C191.575 217.415 192.163 217.561 191.864 217.079C191.31 216.187 193.687 213.264 194.967 213.264C195.344 213.264 196.135 213.949 196.726 214.785C197.852 216.381 199.369 216.093 199.369 214.286C199.369 213.225 202.875 211.451 203.583 212.154C203.791 212.361 204.411 212.159 204.961 211.705C205.718 211.081 206.426 211.127 207.873 211.892C209.369 212.683 209.85 212.706 210.089 212.001C210.469 210.878 212.455 210.845 215.133 211.918C216.258 212.369 218.241 212.866 219.538 213.021C221.6 213.268 226.616 216.002 227.703 217.471C227.912 217.753 228.996 218.383 230.114 218.871C231.231 219.358 232.062 220.163 231.96 220.66C231.859 221.157 232.204 222.333 232.728 223.274C233.558 224.767 233.486 225.244 232.153 227.033C230.449 229.322 230.153 230.416 231.535 229.318C232.036 228.922 234.644 228.225 237.332 227.768C244.081 226.625 245.571 227.65 245.361 233.291C245.342 233.787 245.781 234.193 246.336 234.193C246.988 234.193 247.35 233.362 247.357 231.848C247.374 228.31 248.172 227.515 251.154 228.071C252.732 228.365 253.911 228.245 254.211 227.763C254.481 227.33 255.54 226.976 256.564 226.976C258.151 226.976 258.291 226.813 257.508 225.876C256.404 224.555 256.682 224.231 260.305 222.621C262.382 221.698 263.454 221.57 264.455 222.126C265.422 222.664 265.884 222.639 266.086 222.04C266.241 221.579 267.017 221.202 267.812 221.202C268.607 221.202 269.748 220.715 270.348 220.12C273.311 217.177 290.343 221.716 288.35 224.917C288.14 225.255 288.478 225.533 289.101 225.533C290.121 225.533 290.559 226.375 290.32 227.878C290.272 228.175 290.719 228.419 291.313 228.419C291.906 228.419 293.46 229.376 294.765 230.544L297.14 232.668L295.564 234.252C294.515 235.309 292.804 235.95 290.432 236.176C286.983 236.505 286.884 236.579 287.183 238.602C287.562 241.163 287.953 241.198 289.847 238.839C290.864 237.573 291.732 237.142 292.601 237.473C294.437 238.173 294.168 241.178 292.084 243.247C289.81 245.505 290.922 245.558 293.631 243.322C294.761 242.389 296.126 241.777 296.665 241.962C297.439 242.229 297.477 241.988 296.844 240.815C296.313 239.83 296.291 239.181 296.779 238.882C297.183 238.634 297.693 238.898 297.913 239.467C298.204 240.219 299.147 240.409 301.361 240.164C303.733 239.901 304.851 240.173 306.408 241.392C307.507 242.254 308.407 243.525 308.407 244.219C308.407 244.912 306.775 246.918 304.779 248.677C302.785 250.436 301.149 252.265 301.145 252.741C301.141 253.217 300.716 253.867 300.201 254.184C298.306 255.352 294.672 261.823 293.898 265.407C293.459 267.437 292.756 269.508 292.337 270.01C291.723 270.744 297.382 270.932 321.163 270.966C347.819 271.004 350.659 270.897 349.817 269.889C349.302 269.273 348.444 268.936 347.909 269.139C346.552 269.656 344.284 266.124 345.315 265.101C345.862 264.557 345.868 263.833 345.331 262.665C344.156 260.106 345.131 257.522 347.434 257.085C348.517 256.879 350.156 256.995 351.076 257.342C352.333 257.817 352.749 257.72 352.749 256.951C352.749 255.399 353.994 254.961 355.751 255.895C357.133 256.629 357.269 256.574 356.837 255.458C356.515 254.625 356.877 253.69 357.882 252.761C359.238 251.506 359.633 251.452 361.237 252.304C362.835 253.153 363.142 253.115 363.776 251.991C364.316 251.033 364.736 250.909 365.451 251.5C365.977 251.932 366.686 252.221 367.029 252.14C368.216 251.859 373.12 253.125 373.556 253.823C373.796 254.21 373.415 255.798 372.709 257.353C371.189 260.701 367.876 262.703 365.739 261.568C364.975 261.162 364.067 261.002 363.723 261.214C363.378 261.425 362.177 260.88 361.053 260.003C359.298 258.632 359.081 258.591 359.514 259.71C359.791 260.428 360.018 261.15 360.018 261.316C360.018 261.482 360.427 261.627 360.926 261.639C362.278 261.671 366.56 265.76 366.56 267.02C366.56 267.622 367.051 268.113 367.65 268.113C368.256 268.113 368.741 268.755 368.741 269.557C368.741 270.949 369.215 270.999 382.37 270.97L396 270.939L390.548 265.809C374.664 250.864 351.995 235.106 329.973 223.703L319.907 218.491L327.423 212.458C354.618 190.628 372.249 171.962 376.615 160.377C381.311 147.913 379.571 131.695 372.265 119.86C358.979 98.3358 330.834 90.781 308.154 102.652C300.367 106.728 292.117 115.183 288.251 123.051C284.164 131.367 283.372 136.039 283.929 148.56C284.532 162.154 286.996 177.492 291.81 197.611C293.027 202.696 293.862 207.015 293.666 207.209C293.471 207.403 288.939 206.224 283.594 204.589C238.052 190.651 191.156 188.128 144.59 197.11C139.448 198.101 135.112 198.784 134.955 198.627C134.796 198.469 136.592 194.31 138.945 189.383C146.915 172.695 155.508 151.976 160.088 138.406C167.092 117.649 168.997 101.976 166.019 89.6306C163.906 80.8749 160.615 73.3656 155.696 66.0749C140.536 43.6032 113.843 31.5702 86.8793 35.0503ZM111.776 36.9238C125.846 40.0243 140.892 49.0687 150.126 59.9772C163.366 75.618 168.982 95.1553 165.671 114.065C161.792 136.23 149.089 168.218 126.999 211.459C115.29 234.377 112.184 239.967 111.156 239.967C109.292 239.967 76.933 200.967 62.6527 181.509C43.9892 156.079 33.4431 138.242 28.3867 123.553C26.3731 117.704 26.0671 115.759 25.8076 107.173C25.5684 99.2654 25.7894 96.1837 26.9837 90.8106C29.8696 77.8271 36.0156 66.5534 45.5477 56.7555C57.5723 44.3964 70.6786 38.1045 89.9687 35.4306C93.8177 34.8973 106.529 35.7677 111.776 36.9238ZM230.263 36.6914C223.21 39.0096 218.114 43.4206 214.839 50.0401C213.108 53.5396 212.817 55.0126 212.817 60.2775C212.817 65.761 213.074 66.9446 215.187 71.2055C217.95 76.7778 221.899 80.5978 227.632 83.2414C233.388 85.8958 241.568 85.8857 247.433 83.2168C256.229 79.2143 261.622 71.5043 262.23 62.0666L262.556 57.0146L261.863 61.3189C260.696 68.5735 259.072 72.3112 255.311 76.3967C246.151 86.3476 231.41 87.1357 221.564 78.201C215.828 72.9961 213.565 68.0278 213.554 60.6138C213.546 55.5149 213.83 54.2469 215.937 49.9953C225.597 30.5072 254.292 32.8592 260.745 53.6681C261.399 55.7769 261.801 56.3976 261.833 55.3461C261.99 50.1729 254.309 40.7222 247.504 37.7163C243.264 35.8434 234.439 35.3188 230.263 36.6914ZM230.889 46.1905C229.366 50.1317 235.949 57.3755 241.053 57.3755C243.229 57.3755 243.916 55.844 242.917 53.2192C240.865 47.8259 232.211 42.7689 230.889 46.1905ZM252.434 53.0453C251.803 53.4501 251.703 53.7496 252.196 53.7561C253.563 53.7735 254.828 58.7063 254.351 62.1589C253.268 70.0053 247.501 75.8865 239.614 77.187C236.198 77.7499 230.633 76.5274 230.616 75.2095C230.609 74.6639 230.34 74.7419 229.9 75.4181C229.02 76.7691 228.967 77.7947 229.802 77.2823C230.148 77.0701 232.192 77.2621 234.345 77.7081C245.73 80.0688 256.621 69.9627 254.997 58.5439C254.707 56.5123 254.433 54.2815 254.387 53.5865C254.292 52.1482 253.971 52.0594 252.434 53.0453ZM222.166 54.851C220.643 58.7922 227.226 66.0359 232.33 66.0359C234.506 66.0359 235.193 64.5045 234.195 61.8796C232.142 56.4864 223.489 51.4294 222.166 54.851ZM356.284 68.4905C355.758 69.6358 354.339 70.994 353.129 71.5093L350.931 72.4454L353.298 73.2819C354.809 73.8166 355.823 74.7455 356.103 75.8511C356.667 78.0805 357.686 78.0682 358.254 75.8266C358.533 74.7216 359.55 73.7567 360.993 73.2277L363.289 72.3855L361.219 71.653C359.974 71.2127 358.77 70.0226 358.195 68.6651L357.239 66.4091L356.284 68.4905ZM88.8267 79.2496C75.4711 82.9946 66.61 97.0202 69.2335 110.261C71.556 121.982 79.7941 130.148 91.6283 132.459C101.938 134.473 113.458 129.419 119.287 120.324C128.162 106.477 122.954 88.3777 107.989 81.0633C104.229 79.2258 102.237 78.7372 97.7358 78.5503C94.6108 78.4204 90.6855 78.7286 88.8267 79.2496ZM104.249 80.4736C113.231 83.2861 119.665 90.0766 122.013 99.2235C127.483 120.524 105.037 138.877 84.9705 129.512C68.5509 121.85 64.5536 100.85 76.9998 87.6387C84.2777 79.9143 94.1623 77.3147 104.249 80.4736ZM227.719 120.885C226.837 121.451 226.942 121.587 228.264 121.596C229.164 121.602 229.9 121.282 229.9 120.885C229.9 119.981 229.129 119.981 227.719 120.885ZM233.73 120.664C234.437 120.847 235.419 120.835 235.911 120.637C236.403 120.439 235.824 120.29 234.625 120.305C233.425 120.319 233.023 120.481 233.73 120.664ZM239.713 120.885C239.96 121.282 240.716 121.602 241.392 121.596C242.451 121.586 242.47 121.488 241.531 120.885C240.107 119.972 239.145 119.972 239.713 120.885ZM221.54 121.607C220.139 122.205 220.144 122.229 221.679 122.278C222.555 122.306 223.474 122.004 223.721 121.607C224.253 120.753 223.541 120.753 221.54 121.607ZM246.437 122.085C246.937 122.286 247.755 122.286 248.255 122.085C248.755 121.885 248.345 121.721 247.346 121.721C246.346 121.721 245.938 121.885 246.437 122.085ZM215.362 123.051C214.393 123.673 214.393 123.75 215.362 123.75C215.961 123.75 216.943 123.435 217.542 123.051C218.511 122.428 218.511 122.351 217.542 122.351C216.943 122.351 215.961 122.666 215.362 123.051ZM251.707 123.118C251.707 123.478 252.362 123.772 253.161 123.772C253.961 123.772 254.615 123.647 254.615 123.496C254.615 123.344 253.961 123.049 253.161 122.841C252.362 122.634 251.707 122.758 251.707 123.118ZM209.91 124.494C208.523 125.086 208.531 125.117 210.091 125.165C210.991 125.193 211.727 124.891 211.727 124.494C211.727 124.097 211.645 123.795 211.545 123.823C211.446 123.851 210.709 124.153 209.91 124.494ZM258.56 125.592C259.331 126.171 260.139 126.468 260.356 126.251C260.813 125.799 258.966 124.511 257.886 124.528C257.486 124.534 257.789 125.014 258.56 125.592ZM204.276 126.435C203.577 126.617 203.004 127.077 203.004 127.459C203.004 127.877 203.582 127.846 204.458 127.381C205.257 126.956 205.912 126.457 205.912 126.273C205.912 126.088 205.83 125.975 205.73 126.021C205.63 126.067 204.975 126.254 204.276 126.435ZM264.065 128.103C264.665 128.487 265.482 128.802 265.882 128.802C266.282 128.802 266.118 128.487 265.519 128.103C264.919 127.718 264.101 127.403 263.701 127.403C263.302 127.403 263.465 127.718 264.065 128.103ZM338.662 128.866C345.333 132.073 349.863 140.271 348.723 147.074C347.223 156.021 339.98 162.167 330.937 162.167C312.654 162.167 306.719 137.348 323.067 129.259C327.938 126.85 334.141 126.694 338.662 128.866ZM197.916 129.546C197.316 129.931 197.152 130.245 197.552 130.245C197.952 130.245 198.77 129.931 199.369 129.546C199.969 129.161 200.133 128.847 199.733 128.847C199.333 128.847 198.515 129.161 197.916 129.546ZM268.426 130.603C268.426 130.787 269.162 131.328 270.062 131.804C271.545 132.589 271.604 132.557 270.7 131.469C269.771 130.351 268.426 129.839 268.426 130.603ZM192.464 132.433C192.217 132.83 192.342 133.154 192.741 133.154C193.141 133.154 193.67 132.83 193.918 132.433C194.165 132.036 194.04 131.711 193.64 131.711C193.24 131.711 192.711 132.036 192.464 132.433ZM274.242 134.959C274.74 135.554 275.474 136.041 275.874 136.041C276.279 136.041 276.2 135.563 275.696 134.959C275.198 134.363 274.463 133.876 274.064 133.876C273.658 133.876 273.737 134.355 274.242 134.959ZM187.332 135.657C186.557 136.24 186.29 136.728 186.741 136.74C187.192 136.753 187.968 136.276 188.466 135.68C189.615 134.306 189.145 134.296 187.332 135.657ZM181.83 139.407C180.926 140.496 180.986 140.527 182.469 139.743C184.16 138.848 184.577 138.206 183.466 138.206C183.116 138.206 182.379 138.747 181.83 139.407ZM278.603 138.479C278.603 138.629 279.176 139.197 279.875 139.742C281.028 140.639 281.054 140.614 280.15 139.469C279.2 138.267 278.603 137.885 278.603 138.479ZM7.82222 140.577C7.50674 141.777 6.39383 143.049 5.0614 143.733L2.82904 144.879L4.85786 145.703C5.9744 146.156 7.27849 147.477 7.7568 148.639L8.62619 150.75L9.59081 148.439C10.1694 147.053 11.2467 145.955 12.2811 145.697C14.4706 145.151 14.4931 144.258 12.3313 143.719C11.4008 143.487 10.1433 142.249 9.50358 140.934L8.35069 138.567L7.82222 140.577ZM177.169 142.585C176.387 143.841 177.277 144.108 178.274 142.915C178.848 142.229 178.903 141.815 178.421 141.815C177.996 141.815 177.432 142.161 177.169 142.585ZM286.433 147.272C286.189 147.514 285.598 146.953 285.119 146.027C284.287 144.415 284.307 144.396 285.563 145.587C286.285 146.272 286.677 147.031 286.433 147.272ZM172.474 146.506C171.969 147.11 171.89 147.589 172.296 147.589C172.695 147.589 173.43 147.101 173.927 146.506C174.432 145.902 174.511 145.423 174.106 145.423C173.706 145.423 172.972 145.911 172.474 146.506ZM290.211 152.237C290.198 152.658 289.708 152.371 289.12 151.6C288.534 150.83 288.063 149.855 288.076 149.435C288.089 149.015 288.579 149.302 289.167 150.072C289.753 150.843 290.224 151.817 290.211 152.237ZM168.019 151.017C167.116 152.161 167.141 152.187 168.294 151.289C168.993 150.745 169.566 150.176 169.566 150.026C169.566 149.432 168.969 149.814 168.019 151.017ZM163.448 155.268C163.065 156.259 163.172 156.304 164.097 155.541C165.359 154.502 165.49 154.084 164.555 154.084C164.198 154.084 163.7 154.617 163.448 155.268ZM230.214 155.827C229.952 156.862 228.868 157.941 227.542 158.487L225.31 159.405L227.492 160.431C228.692 160.995 230.004 162.315 230.406 163.364L231.137 165.27L231.951 163.296C232.411 162.176 233.795 160.89 235.148 160.321L237.533 159.319L235.508 158.782C234.35 158.475 233.02 157.354 232.4 156.165C231.081 153.633 230.78 153.586 230.214 155.827ZM292.718 155.991C293.385 157.719 292.865 157.852 291.836 156.216C291.348 155.441 291.244 154.806 291.604 154.806C291.964 154.806 292.465 155.339 292.718 155.991ZM159.375 159.514C158.869 160.119 158.639 160.796 158.863 161.019C159.087 161.242 159.636 160.747 160.083 159.92C161.035 158.153 160.682 157.951 159.375 159.514ZM296.027 162.744C296.027 163.706 295.949 163.706 295.322 162.744C294.935 162.149 294.618 161.175 294.618 160.579C294.618 159.617 294.696 159.617 295.322 160.579C295.71 161.175 296.027 162.149 296.027 162.744ZM155.028 164.549C154.506 165.173 154.435 165.631 154.861 165.631C155.267 165.631 155.787 165.144 156.018 164.549C156.247 163.953 156.322 163.466 156.184 163.466C156.046 163.466 155.526 163.953 155.028 164.549ZM298.219 167.658C298.209 168.71 298.11 168.729 297.503 167.796C296.583 166.383 296.583 165.428 297.503 165.992C297.903 166.237 298.225 166.987 298.219 167.658ZM151.393 168.879C150.879 169.494 150.623 170.158 150.822 170.357C151.022 170.555 151.606 170.215 152.12 169.601C152.634 168.986 152.891 168.321 152.691 168.122C152.491 167.924 151.907 168.264 151.393 168.879ZM300.36 173.793C300.31 175.317 300.286 175.322 299.684 173.931C298.824 171.945 298.824 171.238 299.684 171.766C300.084 172.011 300.387 172.923 300.36 173.793ZM147.744 173.948C147.238 174.553 147.008 175.231 147.232 175.454C147.457 175.677 148.006 175.181 148.452 174.354C149.404 172.587 149.051 172.385 147.744 173.948ZM302.541 180.288C302.568 180.609 302.264 180.671 301.865 180.426C301.465 180.181 301.161 179.268 301.188 178.399C301.238 176.875 301.262 176.87 301.865 178.261C302.208 179.055 302.512 179.967 302.541 180.288ZM303.529 185.117C303.738 185.911 303.613 186.561 303.25 186.561C302.888 186.561 302.591 185.911 302.591 185.117C302.591 184.323 302.717 183.674 302.87 183.674C303.023 183.674 303.32 184.323 303.529 185.117ZM304.772 191.252C304.772 192.244 304.646 193.056 304.494 193.056C304.34 193.056 304.058 192.244 303.867 191.252C303.676 190.259 303.802 189.447 304.146 189.447C304.49 189.447 304.772 190.259 304.772 191.252ZM55.2585 192.812C55.7586 193.013 56.5764 193.013 57.0758 192.812C57.5759 192.612 57.1667 192.448 56.1672 192.448C55.1677 192.448 54.7591 192.612 55.2585 192.812ZM61.4511 192.834C62.1584 193.018 63.1397 193.005 63.6319 192.808C64.124 192.61 63.5454 192.46 62.3459 192.475C61.1465 192.489 60.7438 192.651 61.4511 192.834ZM49.6249 194.499C49.0252 194.884 48.8617 195.199 49.2615 195.199C49.6613 195.199 50.4791 194.884 51.0788 194.499C51.6785 194.115 51.842 193.8 51.4422 193.8C51.0424 193.8 50.2246 194.115 49.6249 194.499ZM67.4344 194.499C67.6815 194.896 68.4368 195.216 69.1128 195.21C70.1719 195.2 70.1915 195.102 69.2516 194.499C67.8283 193.586 66.8659 193.586 67.4344 194.499ZM305.276 197.914C305.091 198.616 304.928 198.216 304.914 197.025C304.899 195.834 305.05 195.26 305.249 195.749C305.448 196.237 305.461 197.211 305.276 197.914ZM44.9043 198.103C44.1782 198.9 43.9223 199.551 44.3352 199.551C45.2496 199.551 47.0626 197.489 46.5741 197.004C46.3814 196.812 45.6298 197.307 44.9043 198.103ZM41.3555 202.827C40.6541 204.641 40.8605 205.11 41.7176 203.647C42.1421 202.922 42.3362 202.178 42.1486 201.992C41.9618 201.806 41.6042 202.182 41.3555 202.827ZM306.003 204.409C305.818 205.111 305.655 204.711 305.641 203.521C305.626 202.33 305.777 201.755 305.976 202.244C306.175 202.732 306.187 203.707 306.003 204.409ZM39.7113 208.573C39.4808 209.168 39.0105 209.655 38.666 209.655C38.3221 209.655 38.2284 209.168 38.4581 208.573C38.6885 207.977 39.1588 207.49 39.5034 207.49C39.8472 207.49 39.941 207.977 39.7113 208.573ZM307.498 212.659C311.596 214.319 314.949 215.927 314.949 216.231C314.949 216.72 299.855 210.788 299.04 209.978C298.155 209.099 300.724 209.914 307.498 212.659ZM37.3408 215.221C36.643 216.412 36.5826 216.396 36.5623 215.008C36.5383 213.337 37.4607 212.035 37.8489 213.191C37.9856 213.598 37.7566 214.511 37.3408 215.221ZM28.7116 216.126C32.714 219.252 33.1007 225.143 29.5359 228.682C24.1909 233.988 15.4599 230.362 15.4599 222.837C15.4599 220.134 15.859 219.218 17.9314 217.161C20.0039 215.103 20.9263 214.707 23.6486 214.707C25.7748 214.707 27.5209 215.196 28.7116 216.126ZM36.2359 221.746C35.4435 222.532 35.1433 221.503 35.6456 219.727L36.1472 217.955L36.4023 219.641C36.5434 220.568 36.4678 221.515 36.2359 221.746ZM255.342 224.811C255.342 225.208 255.015 225.533 254.615 225.533C254.215 225.533 253.888 225.208 253.888 224.811C253.888 224.414 254.215 224.089 254.615 224.089C255.015 224.089 255.342 224.414 255.342 224.811ZM35.5904 227.504C35.4057 228.206 35.2429 227.806 35.2284 226.615C35.2138 225.424 35.3643 224.85 35.5635 225.338C35.7627 225.827 35.775 226.801 35.5904 227.504ZM162.148 227.88C162.68 228.517 162.613 229.179 161.922 230.118C160.805 231.633 159.389 231.131 159.389 229.219C159.389 226.991 160.823 226.295 162.148 227.88ZM229.173 229.502C229.173 229.7 229.337 229.863 229.536 229.863C229.736 229.863 229.9 229.7 229.9 229.502C229.9 229.303 229.736 229.141 229.536 229.141C229.337 229.141 229.173 229.303 229.173 229.502ZM253.219 229.824C252.339 230.367 252.366 230.734 253.4 232.301C254.068 233.314 254.641 234.722 254.672 235.431C254.704 236.139 254.866 236.394 255.032 235.997C255.199 235.6 255.091 233.906 254.793 232.231C254.369 229.851 254.026 229.326 253.219 229.824ZM150.462 231.126C150.725 231.82 151.373 232.714 151.902 233.11C152.431 233.507 153.005 234.564 153.178 235.459C153.35 236.353 153.68 237.389 153.911 237.759C154.678 238.991 150.283 246.084 148.6 246.332C147.737 246.458 147.032 246.284 147.032 245.942C147.032 245.602 146.141 245.335 145.052 245.351C143.735 245.37 142.988 244.957 142.818 244.116C142.519 242.634 144.794 242.364 146.159 243.72C146.837 244.393 147.032 244.308 147.032 243.334C147.032 242.646 145.871 241.403 144.452 240.572C141.595 238.899 141.33 236.86 143.922 236.492C145.271 236.3 145.456 235.935 145.1 234.169C144.868 233.016 144.87 231.575 145.105 230.968C145.715 229.389 149.852 229.511 150.462 231.126ZM227.356 230.217C226.956 230.35 225.765 230.647 224.71 230.876C223.474 231.145 222.826 231.739 222.892 232.543C222.965 233.435 221.037 234.77 216.149 237.215C212.384 239.098 208.273 241.631 207.013 242.843C205.753 244.056 204.09 244.99 203.317 244.919C202.545 244.848 201.06 244.841 200.016 244.905C198.403 245.001 198.169 245.29 198.464 246.823C198.723 248.167 198.502 248.627 197.594 248.627C196.898 248.627 196.586 248.965 196.867 249.416C197.137 249.85 195.93 251.651 194.184 253.418C191.78 255.851 190.625 256.535 189.424 256.236C188.312 255.959 187.715 256.226 187.426 257.13C187.199 257.839 186.039 258.991 184.846 259.69C182.973 260.789 182.796 261.147 183.541 262.332C184.245 263.451 184.155 263.974 183.051 265.186C182.307 266.002 181.095 266.67 180.357 266.67C179.619 266.67 179.054 266.913 179.102 267.211C179.319 268.576 178.947 269.557 178.211 269.557C177.768 269.557 177.595 269.069 177.825 268.474C178.073 267.833 177.832 267.391 177.236 267.391C176.682 267.391 176.109 267.033 175.961 266.594C175.546 265.355 170.73 263.94 169.516 264.701C168.809 265.144 167.328 264.782 164.952 263.587C162.106 262.155 161.118 261.965 159.777 262.594C158.439 263.221 158.268 263.61 158.896 264.608C160.15 266.603 162.758 267.391 168.093 267.391C172.562 267.391 173.247 267.583 174.524 269.196C175.931 270.971 176.121 271 186.39 270.994C196.764 270.988 196.83 270.978 197.655 269.213C198.31 267.811 198.271 267.262 197.473 266.604C196.118 265.488 196.189 263.32 197.598 262.783C198.223 262.544 198.531 262.023 198.282 261.623C198.033 261.223 198.177 260.896 198.6 260.896C199.023 260.896 199.369 261.221 199.369 261.618C199.369 262.015 199.694 262.34 200.09 262.34C200.486 262.34 199.816 260.736 198.601 258.776C196.668 255.656 196.511 255.024 197.336 253.697C197.855 252.864 199.097 252.005 200.096 251.79C201.096 251.575 203.549 250.933 205.548 250.364C207.547 249.795 210.11 249.415 211.244 249.519C212.829 249.666 213.732 249.17 215.144 247.378L216.981 245.045L215.081 244.328C214.036 243.934 213.191 243.197 213.204 242.691C213.272 239.935 221.381 234.576 224.359 235.318C225.332 235.561 226.329 235.397 226.607 234.949C227.086 234.18 228.485 229.802 228.213 229.92C228.141 229.951 227.756 230.085 227.356 230.217ZM35.8135 232.75C35.8135 233.544 35.4864 234.193 35.0866 234.193C34.6868 234.193 34.3597 233.544 34.3597 232.75C34.3597 231.956 34.6868 231.306 35.0866 231.306C35.4864 231.306 35.8135 231.956 35.8135 232.75ZM135.256 233.533C135.512 235.722 133.844 237.376 131.983 236.78C131.264 236.549 129.695 235.572 128.495 234.609L126.314 232.857L128.132 232.11C129.131 231.699 131.094 231.432 132.493 231.515C134.641 231.643 135.072 231.959 135.256 233.533ZM127.121 236.369C131.699 236.387 132.298 237.206 129.96 240.25C127.029 244.064 122.316 243.668 122.316 239.606C122.316 238.772 121.938 237.714 121.475 237.255C120.838 236.622 120.872 236.134 121.619 235.241C122.517 234.166 122.678 234.163 123.449 235.211C123.967 235.915 125.386 236.363 127.121 236.369ZM117.831 238.061C118.107 239.476 114.111 244.267 110.985 246.27C109.856 246.995 109.976 247.003 111.632 246.318C113.455 245.563 113.853 245.672 115.432 247.363C116.402 248.401 117.408 250.571 117.668 252.187C118.353 256.436 120.086 255.935 121.246 251.153C121.343 250.756 121.459 250.096 121.506 249.685C121.613 248.732 125.608 246.362 126.169 246.919C126.401 247.15 126.401 248.932 126.168 250.879C125.763 254.285 125.813 254.412 127.484 254.23C130.27 253.925 130.214 257.142 127.387 259.828C125.342 261.771 124.619 261.991 119.903 262.104C117.033 262.174 113.287 262.452 111.581 262.723C109.525 263.049 108.115 262.916 107.401 262.328C106.088 261.247 105.989 258.986 107.233 258.487C107.828 258.249 107.746 258.104 106.996 258.066C106.366 258.035 105.084 257.199 104.147 256.209L102.443 254.408L105.921 251.004C107.833 249.132 109.034 247.479 108.589 247.332C108.143 247.184 107.778 246.379 107.778 245.543C107.778 244.052 107.758 244.049 106.744 245.422C105.844 246.642 105.855 246.903 106.832 247.449C107.77 247.973 107.613 248.349 105.866 249.768C104.719 250.7 103.208 251.474 102.508 251.488C100.597 251.527 100.979 249.435 103.053 248.496C104.053 248.044 104.87 247.398 104.87 247.062C104.87 246.725 104.24 246.841 103.468 247.319C102.325 248.028 101.588 247.933 99.4702 246.8C95.2287 244.532 96.053 243.193 103.465 240.309C107.543 238.722 108.164 238.647 109.236 239.609C110.937 241.137 111.558 240.98 113.785 238.46C115.841 236.134 117.424 235.978 117.831 238.061ZM35.5904 239.773C35.4057 240.475 35.2429 240.075 35.2284 238.884C35.2138 237.693 35.3643 237.119 35.5635 237.607C35.7627 238.096 35.775 239.07 35.5904 239.773ZM300.016 238.473C300.246 238.843 300.102 239.349 299.695 239.599C299.289 239.848 298.957 239.545 298.957 238.927C298.957 237.659 299.393 237.472 300.016 238.473ZM158.844 240.751C160.642 243.887 160.462 246.034 158.307 247.179C156.529 248.123 156.523 248.159 157.943 249.147C158.739 249.7 159.389 250.621 159.389 251.194C159.389 252.567 155.759 252.569 153.894 251.197C152.703 250.32 152.622 249.932 153.378 248.704C153.999 247.693 154.035 247.106 153.494 246.774C152.656 246.26 153.205 242 154.391 239.799C155.439 237.856 157.427 238.281 158.844 240.751ZM41.6289 239.558C41.6289 239.73 38.1586 242.353 33.9177 245.385C29.6762 248.419 26.3251 250.547 26.469 250.117C26.7453 249.295 40.1401 239.374 41.0837 239.292C41.3832 239.266 41.6289 239.386 41.6289 239.558ZM138.173 245.193C138.023 246.734 137.511 247.615 136.673 247.772C135.224 248.045 134.984 246.418 136.153 244.249C137.32 242.085 138.426 242.601 138.173 245.193ZM118.542 244.351C118.399 244.778 117.971 245.127 117.592 245.127C117.212 245.127 116.784 244.778 116.641 244.351C116.498 243.925 116.925 243.575 117.592 243.575C118.258 243.575 118.686 243.925 118.542 244.351ZM172.21 251.875C172.441 252.47 172.758 252.957 172.915 252.957C173.072 252.957 173.201 252.47 173.201 251.875C173.201 251.279 172.884 250.792 172.496 250.792C172.109 250.792 171.981 251.279 172.21 251.875ZM164.157 253.027C164.925 254.261 162.502 256.336 161.478 255.32C161.023 254.868 160.847 253.989 161.087 253.367C161.59 252.065 163.432 251.861 164.157 253.027ZM129.969 260.206C130.227 260.62 130.039 261.436 129.551 262.019C128.875 262.829 128.429 262.884 127.663 262.253C126.904 261.628 126.861 261.186 127.485 260.439C128.471 259.26 129.33 259.18 129.969 260.206ZM149.212 262.382C149.212 262.756 148.885 263.061 148.485 263.061C148.086 263.061 147.758 262.555 147.758 261.936C147.758 261.318 148.086 261.012 148.485 261.257C148.885 261.502 149.212 262.008 149.212 262.382ZM197.189 261.618C197.189 262.015 196.881 262.34 196.505 262.34C196.128 262.34 195.619 262.015 195.371 261.618C195.124 261.221 195.432 260.896 196.055 260.896C196.678 260.896 197.189 261.221 197.189 261.618ZM296.488 262.866C295.75 263.6 295.14 262.495 295.746 261.521C296.204 260.785 296.376 260.785 296.621 261.518C296.79 262.02 296.73 262.626 296.488 262.866ZM361.472 268.69C361.472 270.306 361.814 271 362.611 271C363.455 271 363.622 270.578 363.256 269.376C362.406 266.584 361.472 266.224 361.472 268.69ZM91.786 270.639C91.786 270.838 91.9496 271 92.1495 271C92.3494 271 92.5129 270.838 92.5129 270.639C92.5129 270.441 92.3494 270.278 92.1495 270.278C91.9496 270.278 91.786 270.441 91.786 270.639Z"/>
</mask>
<path fill-rule="evenodd" clip-rule="evenodd" d="M174.625 2.34987C174.087 3.85029 173.151 4.85707 172.037 5.1342C171.078 5.37381 170.293 5.82343 170.293 6.13449C170.293 6.44554 171.078 6.89516 172.037 7.13477C173.151 7.4119 174.087 8.41868 174.625 9.9191L175.468 12.269L176.411 10.0865C176.93 8.88562 178.301 7.46315 179.457 6.92475L181.56 5.9454L179.491 5.23452C178.24 4.80511 177.035 3.62945 176.445 2.26182L175.468 0L174.625 2.34987ZM86.8793 35.0503C71.2129 37.0725 56.8163 44.2001 45.6182 55.4789C36.6488 64.5131 31.1068 73.7704 27.3275 86.03C25.543 91.8188 25.3663 93.4585 25.322 104.647C25.2755 116.299 25.3794 117.237 27.3777 123.291C33.7091 142.469 52.3174 171.051 84.1912 210.554L87.5372 214.701L85.5207 215.461C81.261 217.069 61.9672 226.993 54.3412 231.498C49.9484 234.093 46.2557 236.125 46.1365 236.012C46.0165 235.898 46.2368 232.602 46.625 228.685C47.0131 224.768 47.0887 220.102 46.7929 218.316C45.6676 211.513 41.2923 205.502 34.9841 202.089C31.7501 200.339 30.0251 199.932 24.8248 199.683C19.2195 199.416 18.103 199.588 14.1994 201.327C0.73698 207.325 -4.17261 223.622 3.9325 235.403C6.29061 238.831 12.5508 245.34 18.2004 250.242L22.0312 253.564L17.11 257.708C8.82754 264.684 3.10309 269.891 3.10309 270.45C3.10236 270.744 18.9179 270.978 38.248 270.971L73.3936 270.959L78.9552 265.579C82.0526 262.583 84.5169 259.588 84.5169 258.82C84.5169 255.948 90.8447 255.651 94.0991 258.37C95.2868 259.362 96.8359 260.174 97.5403 260.174C99.0225 260.174 100.505 262.975 100.519 265.802C100.524 266.875 100.726 268.483 100.967 269.376L101.405 271H123.255H145.105L143.368 269.165C141.913 267.628 141.772 267.106 142.499 265.951C143.736 263.986 142.31 263.418 140.544 265.172C139.314 266.393 138.753 266.497 136.883 265.85C134.576 265.051 134.002 263.295 135.546 261.762C136.225 261.089 136.15 260.896 135.208 260.896C132.994 260.896 131.75 256.625 132.833 252.741C133.542 250.196 135.674 250.397 135.984 253.037C136.169 254.607 136.496 254.853 138.025 254.562C139.22 254.335 139.712 253.866 139.453 253.198C139.006 252.043 141.112 250.952 141.835 251.965C142.094 252.328 143.207 253.018 144.306 253.498C146.78 254.578 146.949 257.002 144.742 259.787C143.452 261.415 143.357 261.872 144.197 262.399C144.756 262.752 145.775 263.044 146.461 263.05C148.429 263.068 149.458 265.654 148.538 268.272C147.564 271.048 147.56 271 148.734 271C149.27 271 150.09 269.739 150.554 268.199C151.019 266.658 151.889 264.995 152.487 264.502C154.208 263.084 153.763 261.03 151.48 259.858C148.998 258.584 147.982 254.718 149.67 252.965C150.586 252.011 150.93 252.013 152.684 252.982C153.773 253.583 154.987 254.798 155.382 255.682C156.355 257.86 160.439 258.171 165.386 256.443C167.674 255.644 168.112 255.161 168.112 253.435C168.112 251.986 168.541 251.267 169.566 251.002C171.353 250.537 171.512 248.486 169.748 248.665C165.13 249.132 163.024 247.652 163.024 243.943C163.024 240.553 163.675 239.245 165.363 239.245C166.764 239.245 166.758 239.195 165.21 237.952C163.701 236.738 163.66 236.466 164.541 233.546C165.058 231.835 165.918 230.267 166.454 230.063C167.038 229.84 167.252 229.14 166.988 228.315C166.649 227.254 167.044 226.767 168.711 226.19C169.901 225.779 171.04 224.813 171.242 224.044C171.445 223.275 172.167 222.646 172.847 222.646C173.598 222.646 173.933 222.256 173.698 221.651C173.321 220.674 174.433 219.037 175.475 219.037C177.052 219.037 178.289 221.587 178.289 224.837C178.289 227.63 178.593 228.531 179.743 229.141C180.638 229.617 181.197 230.652 181.197 231.837C181.197 233.333 181.391 233.567 182.069 232.894C183.304 231.668 184.62 231.818 186.174 233.362C187.329 234.508 187.706 234.558 188.858 233.722C190.113 232.811 190.083 232.75 188.384 232.75C186.385 232.75 180.47 228.789 180.47 227.45C180.47 226.985 180.794 225.484 181.189 224.114C181.665 222.468 181.665 221.378 181.189 220.906C180.794 220.514 180.47 219.778 180.47 219.273C180.47 218.136 184.628 215.919 185.871 216.392C186.371 216.583 187.215 216.472 187.745 216.147C188.325 215.79 189.447 216.033 190.559 216.755C191.575 217.415 192.163 217.561 191.864 217.079C191.31 216.187 193.687 213.264 194.967 213.264C195.344 213.264 196.135 213.949 196.726 214.785C197.852 216.381 199.369 216.093 199.369 214.286C199.369 213.225 202.875 211.451 203.583 212.154C203.791 212.361 204.411 212.159 204.961 211.705C205.718 211.081 206.426 211.127 207.873 211.892C209.369 212.683 209.85 212.706 210.089 212.001C210.469 210.878 212.455 210.845 215.133 211.918C216.258 212.369 218.241 212.866 219.538 213.021C221.6 213.268 226.616 216.002 227.703 217.471C227.912 217.753 228.996 218.383 230.114 218.871C231.231 219.358 232.062 220.163 231.96 220.66C231.859 221.157 232.204 222.333 232.728 223.274C233.558 224.767 233.486 225.244 232.153 227.033C230.449 229.322 230.153 230.416 231.535 229.318C232.036 228.922 234.644 228.225 237.332 227.768C244.081 226.625 245.571 227.65 245.361 233.291C245.342 233.787 245.781 234.193 246.336 234.193C246.988 234.193 247.35 233.362 247.357 231.848C247.374 228.31 248.172 227.515 251.154 228.071C252.732 228.365 253.911 228.245 254.211 227.763C254.481 227.33 255.54 226.976 256.564 226.976C258.151 226.976 258.291 226.813 257.508 225.876C256.404 224.555 256.682 224.231 260.305 222.621C262.382 221.698 263.454 221.57 264.455 222.126C265.422 222.664 265.884 222.639 266.086 222.04C266.241 221.579 267.017 221.202 267.812 221.202C268.607 221.202 269.748 220.715 270.348 220.12C273.311 217.177 290.343 221.716 288.35 224.917C288.14 225.255 288.478 225.533 289.101 225.533C290.121 225.533 290.559 226.375 290.32 227.878C290.272 228.175 290.719 228.419 291.313 228.419C291.906 228.419 293.46 229.376 294.765 230.544L297.14 232.668L295.564 234.252C294.515 235.309 292.804 235.95 290.432 236.176C286.983 236.505 286.884 236.579 287.183 238.602C287.562 241.163 287.953 241.198 289.847 238.839C290.864 237.573 291.732 237.142 292.601 237.473C294.437 238.173 294.168 241.178 292.084 243.247C289.81 245.505 290.922 245.558 293.631 243.322C294.761 242.389 296.126 241.777 296.665 241.962C297.439 242.229 297.477 241.988 296.844 240.815C296.313 239.83 296.291 239.181 296.779 238.882C297.183 238.634 297.693 238.898 297.913 239.467C298.204 240.219 299.147 240.409 301.361 240.164C303.733 239.901 304.851 240.173 306.408 241.392C307.507 242.254 308.407 243.525 308.407 244.219C308.407 244.912 306.775 246.918 304.779 248.677C302.785 250.436 301.149 252.265 301.145 252.741C301.141 253.217 300.716 253.867 300.201 254.184C298.306 255.352 294.672 261.823 293.898 265.407C293.459 267.437 292.756 269.508 292.337 270.01C291.723 270.744 297.382 270.932 321.163 270.966C347.819 271.004 350.659 270.897 349.817 269.889C349.302 269.273 348.444 268.936 347.909 269.139C346.552 269.656 344.284 266.124 345.315 265.101C345.862 264.557 345.868 263.833 345.331 262.665C344.156 260.106 345.131 257.522 347.434 257.085C348.517 256.879 350.156 256.995 351.076 257.342C352.333 257.817 352.749 257.72 352.749 256.951C352.749 255.399 353.994 254.961 355.751 255.895C357.133 256.629 357.269 256.574 356.837 255.458C356.515 254.625 356.877 253.69 357.882 252.761C359.238 251.506 359.633 251.452 361.237 252.304C362.835 253.153 363.142 253.115 363.776 251.991C364.316 251.033 364.736 250.909 365.451 251.5C365.977 251.932 366.686 252.221 367.029 252.14C368.216 251.859 373.12 253.125 373.556 253.823C373.796 254.21 373.415 255.798 372.709 257.353C371.189 260.701 367.876 262.703 365.739 261.568C364.975 261.162 364.067 261.002 363.723 261.214C363.378 261.425 362.177 260.88 361.053 260.003C359.298 258.632 359.081 258.591 359.514 259.71C359.791 260.428 360.018 261.15 360.018 261.316C360.018 261.482 360.427 261.627 360.926 261.639C362.278 261.671 366.56 265.76 366.56 267.02C366.56 267.622 367.051 268.113 367.65 268.113C368.256 268.113 368.741 268.755 368.741 269.557C368.741 270.949 369.215 270.999 382.37 270.97L396 270.939L390.548 265.809C374.664 250.864 351.995 235.106 329.973 223.703L319.907 218.491L327.423 212.458C354.618 190.628 372.249 171.962 376.615 160.377C381.311 147.913 379.571 131.695 372.265 119.86C358.979 98.3358 330.834 90.781 308.154 102.652C300.367 106.728 292.117 115.183 288.251 123.051C284.164 131.367 283.372 136.039 283.929 148.56C284.532 162.154 286.996 177.492 291.81 197.611C293.027 202.696 293.862 207.015 293.666 207.209C293.471 207.403 288.939 206.224 283.594 204.589C238.052 190.651 191.156 188.128 144.59 197.11C139.448 198.101 135.112 198.784 134.955 198.627C134.796 198.469 136.592 194.31 138.945 189.383C146.915 172.695 155.508 151.976 160.088 138.406C167.092 117.649 168.997 101.976 166.019 89.6306C163.906 80.8749 160.615 73.3656 155.696 66.0749C140.536 43.6032 113.843 31.5702 86.8793 35.0503ZM111.776 36.9238C125.846 40.0243 140.892 49.0687 150.126 59.9772C163.366 75.618 168.982 95.1553 165.671 114.065C161.792 136.23 149.089 168.218 126.999 211.459C115.29 234.377 112.184 239.967 111.156 239.967C109.292 239.967 76.933 200.967 62.6527 181.509C43.9892 156.079 33.4431 138.242 28.3867 123.553C26.3731 117.704 26.0671 115.759 25.8076 107.173C25.5684 99.2654 25.7894 96.1837 26.9837 90.8106C29.8696 77.8271 36.0156 66.5534 45.5477 56.7555C57.5723 44.3964 70.6786 38.1045 89.9687 35.4306C93.8177 34.8973 106.529 35.7677 111.776 36.9238ZM230.263 36.6914C223.21 39.0096 218.114 43.4206 214.839 50.0401C213.108 53.5396 212.817 55.0126 212.817 60.2775C212.817 65.761 213.074 66.9446 215.187 71.2055C217.95 76.7778 221.899 80.5978 227.632 83.2414C233.388 85.8958 241.568 85.8857 247.433 83.2168C256.229 79.2143 261.622 71.5043 262.23 62.0666L262.556 57.0146L261.863 61.3189C260.696 68.5735 259.072 72.3112 255.311 76.3967C246.151 86.3476 231.41 87.1357 221.564 78.201C215.828 72.9961 213.565 68.0278 213.554 60.6138C213.546 55.5149 213.83 54.2469 215.937 49.9953C225.597 30.5072 254.292 32.8592 260.745 53.6681C261.399 55.7769 261.801 56.3976 261.833 55.3461C261.99 50.1729 254.309 40.7222 247.504 37.7163C243.264 35.8434 234.439 35.3188 230.263 36.6914ZM230.889 46.1905C229.366 50.1317 235.949 57.3755 241.053 57.3755C243.229 57.3755 243.916 55.844 242.917 53.2192C240.865 47.8259 232.211 42.7689 230.889 46.1905ZM252.434 53.0453C251.803 53.4501 251.703 53.7496 252.196 53.7561C253.563 53.7735 254.828 58.7063 254.351 62.1589C253.268 70.0053 247.501 75.8865 239.614 77.187C236.198 77.7499 230.633 76.5274 230.616 75.2095C230.609 74.6639 230.34 74.7419 229.9 75.4181C229.02 76.7691 228.967 77.7947 229.802 77.2823C230.148 77.0701 232.192 77.2621 234.345 77.7081C245.73 80.0688 256.621 69.9627 254.997 58.5439C254.707 56.5123 254.433 54.2815 254.387 53.5865C254.292 52.1482 253.971 52.0594 252.434 53.0453ZM222.166 54.851C220.643 58.7922 227.226 66.0359 232.33 66.0359C234.506 66.0359 235.193 64.5045 234.195 61.8796C232.142 56.4864 223.489 51.4294 222.166 54.851ZM356.284 68.4905C355.758 69.6358 354.339 70.994 353.129 71.5093L350.931 72.4454L353.298 73.2819C354.809 73.8166 355.823 74.7455 356.103 75.8511C356.667 78.0805 357.686 78.0682 358.254 75.8266C358.533 74.7216 359.55 73.7567 360.993 73.2277L363.289 72.3855L361.219 71.653C359.974 71.2127 358.77 70.0226 358.195 68.6651L357.239 66.4091L356.284 68.4905ZM88.8267 79.2496C75.4711 82.9946 66.61 97.0202 69.2335 110.261C71.556 121.982 79.7941 130.148 91.6283 132.459C101.938 134.473 113.458 129.419 119.287 120.324C128.162 106.477 122.954 88.3777 107.989 81.0633C104.229 79.2258 102.237 78.7372 97.7358 78.5503C94.6108 78.4204 90.6855 78.7286 88.8267 79.2496ZM104.249 80.4736C113.231 83.2861 119.665 90.0766 122.013 99.2235C127.483 120.524 105.037 138.877 84.9705 129.512C68.5509 121.85 64.5536 100.85 76.9998 87.6387C84.2777 79.9143 94.1623 77.3147 104.249 80.4736ZM227.719 120.885C226.837 121.451 226.942 121.587 228.264 121.596C229.164 121.602 229.9 121.282 229.9 120.885C229.9 119.981 229.129 119.981 227.719 120.885ZM233.73 120.664C234.437 120.847 235.419 120.835 235.911 120.637C236.403 120.439 235.824 120.29 234.625 120.305C233.425 120.319 233.023 120.481 233.73 120.664ZM239.713 120.885C239.96 121.282 240.716 121.602 241.392 121.596C242.451 121.586 242.47 121.488 241.531 120.885C240.107 119.972 239.145 119.972 239.713 120.885ZM221.54 121.607C220.139 122.205 220.144 122.229 221.679 122.278C222.555 122.306 223.474 122.004 223.721 121.607C224.253 120.753 223.541 120.753 221.54 121.607ZM246.437 122.085C246.937 122.286 247.755 122.286 248.255 122.085C248.755 121.885 248.345 121.721 247.346 121.721C246.346 121.721 245.938 121.885 246.437 122.085ZM215.362 123.051C214.393 123.673 214.393 123.75 215.362 123.75C215.961 123.75 216.943 123.435 217.542 123.051C218.511 122.428 218.511 122.351 217.542 122.351C216.943 122.351 215.961 122.666 215.362 123.051ZM251.707 123.118C251.707 123.478 252.362 123.772 253.161 123.772C253.961 123.772 254.615 123.647 254.615 123.496C254.615 123.344 253.961 123.049 253.161 122.841C252.362 122.634 251.707 122.758 251.707 123.118ZM209.91 124.494C208.523 125.086 208.531 125.117 210.091 125.165C210.991 125.193 211.727 124.891 211.727 124.494C211.727 124.097 211.645 123.795 211.545 123.823C211.446 123.851 210.709 124.153 209.91 124.494ZM258.56 125.592C259.331 126.171 260.139 126.468 260.356 126.251C260.813 125.799 258.966 124.511 257.886 124.528C257.486 124.534 257.789 125.014 258.56 125.592ZM204.276 126.435C203.577 126.617 203.004 127.077 203.004 127.459C203.004 127.877 203.582 127.846 204.458 127.381C205.257 126.956 205.912 126.457 205.912 126.273C205.912 126.088 205.83 125.975 205.73 126.021C205.63 126.067 204.975 126.254 204.276 126.435ZM264.065 128.103C264.665 128.487 265.482 128.802 265.882 128.802C266.282 128.802 266.118 128.487 265.519 128.103C264.919 127.718 264.101 127.403 263.701 127.403C263.302 127.403 263.465 127.718 264.065 128.103ZM338.662 128.866C345.333 132.073 349.863 140.271 348.723 147.074C347.223 156.021 339.98 162.167 330.937 162.167C312.654 162.167 306.719 137.348 323.067 129.259C327.938 126.85 334.141 126.694 338.662 128.866ZM197.916 129.546C197.316 129.931 197.152 130.245 197.552 130.245C197.952 130.245 198.77 129.931 199.369 129.546C199.969 129.161 200.133 128.847 199.733 128.847C199.333 128.847 198.515 129.161 197.916 129.546ZM268.426 130.603C268.426 130.787 269.162 131.328 270.062 131.804C271.545 132.589 271.604 132.557 270.7 131.469C269.771 130.351 268.426 129.839 268.426 130.603ZM192.464 132.433C192.217 132.83 192.342 133.154 192.741 133.154C193.141 133.154 193.67 132.83 193.918 132.433C194.165 132.036 194.04 131.711 193.64 131.711C193.24 131.711 192.711 132.036 192.464 132.433ZM274.242 134.959C274.74 135.554 275.474 136.041 275.874 136.041C276.279 136.041 276.2 135.563 275.696 134.959C275.198 134.363 274.463 133.876 274.064 133.876C273.658 133.876 273.737 134.355 274.242 134.959ZM187.332 135.657C186.557 136.24 186.29 136.728 186.741 136.74C187.192 136.753 187.968 136.276 188.466 135.68C189.615 134.306 189.145 134.296 187.332 135.657ZM181.83 139.407C180.926 140.496 180.986 140.527 182.469 139.743C184.16 138.848 184.577 138.206 183.466 138.206C183.116 138.206 182.379 138.747 181.83 139.407ZM278.603 138.479C278.603 138.629 279.176 139.197 279.875 139.742C281.028 140.639 281.054 140.614 280.15 139.469C279.2 138.267 278.603 137.885 278.603 138.479ZM7.82222 140.577C7.50674 141.777 6.39383 143.049 5.0614 143.733L2.82904 144.879L4.85786 145.703C5.9744 146.156 7.27849 147.477 7.7568 148.639L8.62619 150.75L9.59081 148.439C10.1694 147.053 11.2467 145.955 12.2811 145.697C14.4706 145.151 14.4931 144.258 12.3313 143.719C11.4008 143.487 10.1433 142.249 9.50358 140.934L8.35069 138.567L7.82222 140.577ZM177.169 142.585C176.387 143.841 177.277 144.108 178.274 142.915C178.848 142.229 178.903 141.815 178.421 141.815C177.996 141.815 177.432 142.161 177.169 142.585ZM286.433 147.272C286.189 147.514 285.598 146.953 285.119 146.027C284.287 144.415 284.307 144.396 285.563 145.587C286.285 146.272 286.677 147.031 286.433 147.272ZM172.474 146.506C171.969 147.11 171.89 147.589 172.296 147.589C172.695 147.589 173.43 147.101 173.927 146.506C174.432 145.902 174.511 145.423 174.106 145.423C173.706 145.423 172.972 145.911 172.474 146.506ZM290.211 152.237C290.198 152.658 289.708 152.371 289.12 151.6C288.534 150.83 288.063 149.855 288.076 149.435C288.089 149.015 288.579 149.302 289.167 150.072C289.753 150.843 290.224 151.817 290.211 152.237ZM168.019 151.017C167.116 152.161 167.141 152.187 168.294 151.289C168.993 150.745 169.566 150.176 169.566 150.026C169.566 149.432 168.969 149.814 168.019 151.017ZM163.448 155.268C163.065 156.259 163.172 156.304 164.097 155.541C165.359 154.502 165.49 154.084 164.555 154.084C164.198 154.084 163.7 154.617 163.448 155.268ZM230.214 155.827C229.952 156.862 228.868 157.941 227.542 158.487L225.31 159.405L227.492 160.431C228.692 160.995 230.004 162.315 230.406 163.364L231.137 165.27L231.951 163.296C232.411 162.176 233.795 160.89 235.148 160.321L237.533 159.319L235.508 158.782C234.35 158.475 233.02 157.354 232.4 156.165C231.081 153.633 230.78 153.586 230.214 155.827ZM292.718 155.991C293.385 157.719 292.865 157.852 291.836 156.216C291.348 155.441 291.244 154.806 291.604 154.806C291.964 154.806 292.465 155.339 292.718 155.991ZM159.375 159.514C158.869 160.119 158.639 160.796 158.863 161.019C159.087 161.242 159.636 160.747 160.083 159.92C161.035 158.153 160.682 157.951 159.375 159.514ZM296.027 162.744C296.027 163.706 295.949 163.706 295.322 162.744C294.935 162.149 294.618 161.175 294.618 160.579C294.618 159.617 294.696 159.617 295.322 160.579C295.71 161.175 296.027 162.149 296.027 162.744ZM155.028 164.549C154.506 165.173 154.435 165.631 154.861 165.631C155.267 165.631 155.787 165.144 156.018 164.549C156.247 163.953 156.322 163.466 156.184 163.466C156.046 163.466 155.526 163.953 155.028 164.549ZM298.219 167.658C298.209 168.71 298.11 168.729 297.503 167.796C296.583 166.383 296.583 165.428 297.503 165.992C297.903 166.237 298.225 166.987 298.219 167.658ZM151.393 168.879C150.879 169.494 150.623 170.158 150.822 170.357C151.022 170.555 151.606 170.215 152.12 169.601C152.634 168.986 152.891 168.321 152.691 168.122C152.491 167.924 151.907 168.264 151.393 168.879ZM300.36 173.793C300.31 175.317 300.286 175.322 299.684 173.931C298.824 171.945 298.824 171.238 299.684 171.766C300.084 172.011 300.387 172.923 300.36 173.793ZM147.744 173.948C147.238 174.553 147.008 175.231 147.232 175.454C147.457 175.677 148.006 175.181 148.452 174.354C149.404 172.587 149.051 172.385 147.744 173.948ZM302.541 180.288C302.568 180.609 302.264 180.671 301.865 180.426C301.465 180.181 301.161 179.268 301.188 178.399C301.238 176.875 301.262 176.87 301.865 178.261C302.208 179.055 302.512 179.967 302.541 180.288ZM303.529 185.117C303.738 185.911 303.613 186.561 303.25 186.561C302.888 186.561 302.591 185.911 302.591 185.117C302.591 184.323 302.717 183.674 302.87 183.674C303.023 183.674 303.32 184.323 303.529 185.117ZM304.772 191.252C304.772 192.244 304.646 193.056 304.494 193.056C304.34 193.056 304.058 192.244 303.867 191.252C303.676 190.259 303.802 189.447 304.146 189.447C304.49 189.447 304.772 190.259 304.772 191.252ZM55.2585 192.812C55.7586 193.013 56.5764 193.013 57.0758 192.812C57.5759 192.612 57.1667 192.448 56.1672 192.448C55.1677 192.448 54.7591 192.612 55.2585 192.812ZM61.4511 192.834C62.1584 193.018 63.1397 193.005 63.6319 192.808C64.124 192.61 63.5454 192.46 62.3459 192.475C61.1465 192.489 60.7438 192.651 61.4511 192.834ZM49.6249 194.499C49.0252 194.884 48.8617 195.199 49.2615 195.199C49.6613 195.199 50.4791 194.884 51.0788 194.499C51.6785 194.115 51.842 193.8 51.4422 193.8C51.0424 193.8 50.2246 194.115 49.6249 194.499ZM67.4344 194.499C67.6815 194.896 68.4368 195.216 69.1128 195.21C70.1719 195.2 70.1915 195.102 69.2516 194.499C67.8283 193.586 66.8659 193.586 67.4344 194.499ZM305.276 197.914C305.091 198.616 304.928 198.216 304.914 197.025C304.899 195.834 305.05 195.26 305.249 195.749C305.448 196.237 305.461 197.211 305.276 197.914ZM44.9043 198.103C44.1782 198.9 43.9223 199.551 44.3352 199.551C45.2496 199.551 47.0626 197.489 46.5741 197.004C46.3814 196.812 45.6298 197.307 44.9043 198.103ZM41.3555 202.827C40.6541 204.641 40.8605 205.11 41.7176 203.647C42.1421 202.922 42.3362 202.178 42.1486 201.992C41.9618 201.806 41.6042 202.182 41.3555 202.827ZM306.003 204.409C305.818 205.111 305.655 204.711 305.641 203.521C305.626 202.33 305.777 201.755 305.976 202.244C306.175 202.732 306.187 203.707 306.003 204.409ZM39.7113 208.573C39.4808 209.168 39.0105 209.655 38.666 209.655C38.3221 209.655 38.2284 209.168 38.4581 208.573C38.6885 207.977 39.1588 207.49 39.5034 207.49C39.8472 207.49 39.941 207.977 39.7113 208.573ZM307.498 212.659C311.596 214.319 314.949 215.927 314.949 216.231C314.949 216.72 299.855 210.788 299.04 209.978C298.155 209.099 300.724 209.914 307.498 212.659ZM37.3408 215.221C36.643 216.412 36.5826 216.396 36.5623 215.008C36.5383 213.337 37.4607 212.035 37.8489 213.191C37.9856 213.598 37.7566 214.511 37.3408 215.221ZM28.7116 216.126C32.714 219.252 33.1007 225.143 29.5359 228.682C24.1909 233.988 15.4599 230.362 15.4599 222.837C15.4599 220.134 15.859 219.218 17.9314 217.161C20.0039 215.103 20.9263 214.707 23.6486 214.707C25.7748 214.707 27.5209 215.196 28.7116 216.126ZM36.2359 221.746C35.4435 222.532 35.1433 221.503 35.6456 219.727L36.1472 217.955L36.4023 219.641C36.5434 220.568 36.4678 221.515 36.2359 221.746ZM255.342 224.811C255.342 225.208 255.015 225.533 254.615 225.533C254.215 225.533 253.888 225.208 253.888 224.811C253.888 224.414 254.215 224.089 254.615 224.089C255.015 224.089 255.342 224.414 255.342 224.811ZM35.5904 227.504C35.4057 228.206 35.2429 227.806 35.2284 226.615C35.2138 225.424 35.3643 224.85 35.5635 225.338C35.7627 225.827 35.775 226.801 35.5904 227.504ZM162.148 227.88C162.68 228.517 162.613 229.179 161.922 230.118C160.805 231.633 159.389 231.131 159.389 229.219C159.389 226.991 160.823 226.295 162.148 227.88ZM229.173 229.502C229.173 229.7 229.337 229.863 229.536 229.863C229.736 229.863 229.9 229.7 229.9 229.502C229.9 229.303 229.736 229.141 229.536 229.141C229.337 229.141 229.173 229.303 229.173 229.502ZM253.219 229.824C252.339 230.367 252.366 230.734 253.4 232.301C254.068 233.314 254.641 234.722 254.672 235.431C254.704 236.139 254.866 236.394 255.032 235.997C255.199 235.6 255.091 233.906 254.793 232.231C254.369 229.851 254.026 229.326 253.219 229.824ZM150.462 231.126C150.725 231.82 151.373 232.714 151.902 233.11C152.431 233.507 153.005 234.564 153.178 235.459C153.35 236.353 153.68 237.389 153.911 237.759C154.678 238.991 150.283 246.084 148.6 246.332C147.737 246.458 147.032 246.284 147.032 245.942C147.032 245.602 146.141 245.335 145.052 245.351C143.735 245.37 142.988 244.957 142.818 244.116C142.519 242.634 144.794 242.364 146.159 243.72C146.837 244.393 147.032 244.308 147.032 243.334C147.032 242.646 145.871 241.403 144.452 240.572C141.595 238.899 141.33 236.86 143.922 236.492C145.271 236.3 145.456 235.935 145.1 234.169C144.868 233.016 144.87 231.575 145.105 230.968C145.715 229.389 149.852 229.511 150.462 231.126ZM227.356 230.217C226.956 230.35 225.765 230.647 224.71 230.876C223.474 231.145 222.826 231.739 222.892 232.543C222.965 233.435 221.037 234.77 216.149 237.215C212.384 239.098 208.273 241.631 207.013 242.843C205.753 244.056 204.09 244.99 203.317 244.919C202.545 244.848 201.06 244.841 200.016 244.905C198.403 245.001 198.169 245.29 198.464 246.823C198.723 248.167 198.502 248.627 197.594 248.627C196.898 248.627 196.586 248.965 196.867 249.416C197.137 249.85 195.93 251.651 194.184 253.418C191.78 255.851 190.625 256.535 189.424 256.236C188.312 255.959 187.715 256.226 187.426 257.13C187.199 257.839 186.039 258.991 184.846 259.69C182.973 260.789 182.796 261.147 183.541 262.332C184.245 263.451 184.155 263.974 183.051 265.186C182.307 266.002 181.095 266.67 180.357 266.67C179.619 266.67 179.054 266.913 179.102 267.211C179.319 268.576 178.947 269.557 178.211 269.557C177.768 269.557 177.595 269.069 177.825 268.474C178.073 267.833 177.832 267.391 177.236 267.391C176.682 267.391 176.109 267.033 175.961 266.594C175.546 265.355 170.73 263.94 169.516 264.701C168.809 265.144 167.328 264.782 164.952 263.587C162.106 262.155 161.118 261.965 159.777 262.594C158.439 263.221 158.268 263.61 158.896 264.608C160.15 266.603 162.758 267.391 168.093 267.391C172.562 267.391 173.247 267.583 174.524 269.196C175.931 270.971 176.121 271 186.39 270.994C196.764 270.988 196.83 270.978 197.655 269.213C198.31 267.811 198.271 267.262 197.473 266.604C196.118 265.488 196.189 263.32 197.598 262.783C198.223 262.544 198.531 262.023 198.282 261.623C198.033 261.223 198.177 260.896 198.6 260.896C199.023 260.896 199.369 261.221 199.369 261.618C199.369 262.015 199.694 262.34 200.09 262.34C200.486 262.34 199.816 260.736 198.601 258.776C196.668 255.656 196.511 255.024 197.336 253.697C197.855 252.864 199.097 252.005 200.096 251.79C201.096 251.575 203.549 250.933 205.548 250.364C207.547 249.795 210.11 249.415 211.244 249.519C212.829 249.666 213.732 249.17 215.144 247.378L216.981 245.045L215.081 244.328C214.036 243.934 213.191 243.197 213.204 242.691C213.272 239.935 221.381 234.576 224.359 235.318C225.332 235.561 226.329 235.397 226.607 234.949C227.086 234.18 228.485 229.802 228.213 229.92C228.141 229.951 227.756 230.085 227.356 230.217ZM35.8135 232.75C35.8135 233.544 35.4864 234.193 35.0866 234.193C34.6868 234.193 34.3597 233.544 34.3597 232.75C34.3597 231.956 34.6868 231.306 35.0866 231.306C35.4864 231.306 35.8135 231.956 35.8135 232.75ZM135.256 233.533C135.512 235.722 133.844 237.376 131.983 236.78C131.264 236.549 129.695 235.572 128.495 234.609L126.314 232.857L128.132 232.11C129.131 231.699 131.094 231.432 132.493 231.515C134.641 231.643 135.072 231.959 135.256 233.533ZM127.121 236.369C131.699 236.387 132.298 237.206 129.96 240.25C127.029 244.064 122.316 243.668 122.316 239.606C122.316 238.772 121.938 237.714 121.475 237.255C120.838 236.622 120.872 236.134 121.619 235.241C122.517 234.166 122.678 234.163 123.449 235.211C123.967 235.915 125.386 236.363 127.121 236.369ZM117.831 238.061C118.107 239.476 114.111 244.267 110.985 246.27C109.856 246.995 109.976 247.003 111.632 246.318C113.455 245.563 113.853 245.672 115.432 247.363C116.402 248.401 117.408 250.571 117.668 252.187C118.353 256.436 120.086 255.935 121.246 251.153C121.343 250.756 121.459 250.096 121.506 249.685C121.613 248.732 125.608 246.362 126.169 246.919C126.401 247.15 126.401 248.932 126.168 250.879C125.763 254.285 125.813 254.412 127.484 254.23C130.27 253.925 130.214 257.142 127.387 259.828C125.342 261.771 124.619 261.991 119.903 262.104C117.033 262.174 113.287 262.452 111.581 262.723C109.525 263.049 108.115 262.916 107.401 262.328C106.088 261.247 105.989 258.986 107.233 258.487C107.828 258.249 107.746 258.104 106.996 258.066C106.366 258.035 105.084 257.199 104.147 256.209L102.443 254.408L105.921 251.004C107.833 249.132 109.034 247.479 108.589 247.332C108.143 247.184 107.778 246.379 107.778 245.543C107.778 244.052 107.758 244.049 106.744 245.422C105.844 246.642 105.855 246.903 106.832 247.449C107.77 247.973 107.613 248.349 105.866 249.768C104.719 250.7 103.208 251.474 102.508 251.488C100.597 251.527 100.979 249.435 103.053 248.496C104.053 248.044 104.87 247.398 104.87 247.062C104.87 246.725 104.24 246.841 103.468 247.319C102.325 248.028 101.588 247.933 99.4702 246.8C95.2287 244.532 96.053 243.193 103.465 240.309C107.543 238.722 108.164 238.647 109.236 239.609C110.937 241.137 111.558 240.98 113.785 238.46C115.841 236.134 117.424 235.978 117.831 238.061ZM35.5904 239.773C35.4057 240.475 35.2429 240.075 35.2284 238.884C35.2138 237.693 35.3643 237.119 35.5635 237.607C35.7627 238.096 35.775 239.07 35.5904 239.773ZM300.016 238.473C300.246 238.843 300.102 239.349 299.695 239.599C299.289 239.848 298.957 239.545 298.957 238.927C298.957 237.659 299.393 237.472 300.016 238.473ZM158.844 240.751C160.642 243.887 160.462 246.034 158.307 247.179C156.529 248.123 156.523 248.159 157.943 249.147C158.739 249.7 159.389 250.621 159.389 251.194C159.389 252.567 155.759 252.569 153.894 251.197C152.703 250.32 152.622 249.932 153.378 248.704C153.999 247.693 154.035 247.106 153.494 246.774C152.656 246.26 153.205 242 154.391 239.799C155.439 237.856 157.427 238.281 158.844 240.751ZM41.6289 239.558C41.6289 239.73 38.1586 242.353 33.9177 245.385C29.6762 248.419 26.3251 250.547 26.469 250.117C26.7453 249.295 40.1401 239.374 41.0837 239.292C41.3832 239.266 41.6289 239.386 41.6289 239.558ZM138.173 245.193C138.023 246.734 137.511 247.615 136.673 247.772C135.224 248.045 134.984 246.418 136.153 244.249C137.32 242.085 138.426 242.601 138.173 245.193ZM118.542 244.351C118.399 244.778 117.971 245.127 117.592 245.127C117.212 245.127 116.784 244.778 116.641 244.351C116.498 243.925 116.925 243.575 117.592 243.575C118.258 243.575 118.686 243.925 118.542 244.351ZM172.21 251.875C172.441 252.47 172.758 252.957 172.915 252.957C173.072 252.957 173.201 252.47 173.201 251.875C173.201 251.279 172.884 250.792 172.496 250.792C172.109 250.792 171.981 251.279 172.21 251.875ZM164.157 253.027C164.925 254.261 162.502 256.336 161.478 255.32C161.023 254.868 160.847 253.989 161.087 253.367C161.59 252.065 163.432 251.861 164.157 253.027ZM129.969 260.206C130.227 260.62 130.039 261.436 129.551 262.019C128.875 262.829 128.429 262.884 127.663 262.253C126.904 261.628 126.861 261.186 127.485 260.439C128.471 259.26 129.33 259.18 129.969 260.206ZM149.212 262.382C149.212 262.756 148.885 263.061 148.485 263.061C148.086 263.061 147.758 262.555 147.758 261.936C147.758 261.318 148.086 261.012 148.485 261.257C148.885 261.502 149.212 262.008 149.212 262.382ZM197.189 261.618C197.189 262.015 196.881 262.34 196.505 262.34C196.128 262.34 195.619 262.015 195.371 261.618C195.124 261.221 195.432 260.896 196.055 260.896C196.678 260.896 197.189 261.221 197.189 261.618ZM296.488 262.866C295.75 263.6 295.14 262.495 295.746 261.521C296.204 260.785 296.376 260.785 296.621 261.518C296.79 262.02 296.73 262.626 296.488 262.866ZM361.472 268.69C361.472 270.306 361.814 271 362.611 271C363.455 271 363.622 270.578 363.256 269.376C362.406 266.584 361.472 266.224 361.472 268.69ZM91.786 270.639C91.786 270.838 91.9496 271 92.1495 271C92.3494 271 92.5129 270.838 92.5129 270.639C92.5129 270.441 92.3494 270.278 92.1495 270.278C91.9496 270.278 91.786 270.441 91.786 270.639Z" fill="url(#paint0_linear_148_239)" fill-opacity="0.8" stroke="url(#paint1_linear_148_239)" stroke-width="4" mask="url(#path-1-inside-1_148_239)"/>
</g>
<defs>
<linearGradient id="paint0_linear_148_239" x1="198" y1="0" x2="198" y2="271" gradientUnits="userSpaceOnUse">
<stop stop-color="white"/>
<stop offset="1" stop-color="white" stop-opacity="0"/>
</linearGradient>
<linearGradient id="paint1_linear_148_239" x1="198" y1="0" x2="198" y2="271" gradientUnits="userSpaceOnUse">
<stop stop-color="white"/>
<stop offset="1" stop-color="white" stop-opacity="0"/>
</linearGradient>
</defs>
</svg>
