<svg width="86" height="86" viewBox="0 0 86 86" fill="none" xmlns="http://www.w3.org/2000/svg">
<path d="M82.0909 58.5355V59.1828C82.4507 59.1828 82.7424 58.8929 82.7424 58.5355H82.0909ZM29.9697 58.5355H29.3182C29.3182 58.8929 29.6099 59.1828 29.9697 59.1828V58.5355ZM68.4091 19.6968C68.4091 26.4893 62.8669 31.9957 56.0303 31.9957V33.2903C63.5866 33.2903 69.7121 27.2043 69.7121 19.6968H68.4091ZM56.0303 31.9957C49.1937 31.9957 43.6515 26.4893 43.6515 19.6968H42.3485C42.3485 27.2043 48.474 33.2903 56.0303 33.2903V31.9957ZM43.6515 19.6968C43.6515 12.9042 49.1937 7.39783 56.0303 7.39783V6.10321C48.474 6.10321 42.3485 12.1892 42.3485 19.6968H43.6515ZM56.0303 7.39783C62.8669 7.39783 68.4091 12.9042 68.4091 19.6968H69.7121C69.7121 12.1892 63.5866 6.10321 56.0303 6.10321V7.39783ZM82.0909 57.8882H29.9697V59.1828H82.0909V57.8882ZM30.6212 58.5355C30.6212 44.6521 42.0568 33.2903 56.0303 33.2903V31.9957C41.3372 31.9957 29.3182 43.9372 29.3182 58.5355H30.6212ZM56.0303 33.2903C70.221 33.2903 81.4394 44.4364 81.4394 58.5355H82.7424C82.7424 43.7213 70.9406 31.9957 56.0303 31.9957V33.2903Z" fill="white"/>
<path d="M29.9697 53.357C37.1661 53.357 43 47.5607 43 40.4108C43 33.2607 37.1661 27.4645 29.9697 27.4645C22.7733 27.4645 16.9394 33.2607 16.9394 40.4108C16.9394 47.5607 22.7733 53.357 29.9697 53.357Z" fill="#A250FF"/>
<path d="M56.0303 79.2495H3.90908C3.90908 65.0086 15.6364 53.357 29.9697 53.357C44.303 53.357 56.0303 64.7928 56.0303 79.2495Z" fill="#A250FF"/>
<path d="M56.0303 79.2495V79.8968C56.3901 79.8968 56.6818 79.6069 56.6818 79.2495H56.0303ZM3.90911 79.2495H3.25759C3.25759 79.6069 3.54929 79.8968 3.90911 79.8968V79.2495ZM29.9697 54.0043C37.526 54.0043 43.6515 47.9183 43.6515 40.4107H42.3485C42.3485 47.2032 36.8063 52.7097 29.9697 52.7097V54.0043ZM43.6515 40.4107C43.6515 32.9032 37.526 26.8172 29.9697 26.8172V28.1118C36.8063 28.1118 42.3485 33.6182 42.3485 40.4107H43.6515ZM29.9697 26.8172C22.4134 26.8172 16.2879 32.9032 16.2879 40.4107H17.5909C17.5909 33.6182 23.1331 28.1118 29.9697 28.1118V26.8172ZM16.2879 40.4107C16.2879 47.9183 22.4134 54.0043 29.9697 54.0043V52.7097C23.1331 52.7097 17.5909 47.2032 17.5909 40.4107H16.2879ZM56.0303 78.6021H3.90911V79.8968H56.0303V78.6021ZM4.56062 79.2495C4.56062 65.366 15.9961 54.0043 29.9697 54.0043V52.7097C15.2766 52.7097 3.25759 64.6512 3.25759 79.2495H4.56062ZM29.9697 54.0043C43.9468 54.0043 55.3788 65.1539 55.3788 79.2495H56.6818C56.6818 64.4318 44.6593 52.7097 29.9697 52.7097V54.0043Z" fill="white"/>
</svg>
