<svg width="86" height="86" viewBox="0 0 86 86" fill="none" xmlns="http://www.w3.org/2000/svg">
<path d="M43 7.58824C35.9962 7.58824 29.1497 9.66511 23.3263 13.5562C17.5029 17.4473 12.964 22.9779 10.2838 29.4485C7.60358 35.9192 6.90231 43.0393 8.26868 49.9085C9.63505 56.7777 13.0077 63.0875 17.9601 68.0399C22.9125 72.9923 29.2223 76.365 36.0915 77.7313C42.9607 79.0977 50.0809 78.3964 56.5515 75.7162C63.0222 73.036 68.5527 68.4972 72.4438 62.6737C76.3349 56.8503 78.4118 50.0038 78.4118 43C78.4118 33.6082 74.6809 24.6011 68.0399 17.9601C61.3989 11.3191 52.3918 7.58824 43 7.58824ZM27.5074 62.1814C26.7778 62.1814 26.0646 61.965 25.458 61.5597C24.8514 61.1544 24.3786 60.5783 24.0994 59.9043C23.8202 59.2302 23.7472 58.4886 23.8895 57.773C24.0319 57.0575 24.3832 56.4002 24.899 55.8843C25.4149 55.3685 26.0722 55.0171 26.7877 54.8748C27.5033 54.7325 28.245 54.8055 28.919 55.0847C29.593 55.3639 30.1691 55.8367 30.5744 56.4433C30.9798 57.0499 31.1961 57.7631 31.1961 58.4927C31.1961 59.471 30.8075 60.4092 30.1157 61.101C29.4239 61.7927 28.4857 62.1814 27.5074 62.1814ZM31.1961 47.2789C31.3134 47.5588 31.372 47.8598 31.3681 48.1633C31.3641 48.4668 31.2978 48.7662 31.1733 49.0429C31.0488 49.3197 30.8686 49.5679 30.6441 49.7721C30.4196 49.9763 30.1555 50.1321 29.8682 50.2299C29.6241 50.2723 29.3745 50.2723 29.1304 50.2299C28.6893 50.2392 28.2552 50.1182 27.8825 49.882C27.5098 49.6458 27.2151 49.3049 27.0352 48.902C26.3648 47.0067 26.0254 45.0103 26.0319 43C26.0397 38.5022 27.8299 34.1908 31.0103 31.0103C34.1908 27.8299 38.5022 26.0397 43 26.0319C45.0103 26.0254 47.0067 26.3648 48.902 27.0352C49.4537 27.2504 49.8974 27.676 50.1354 28.2184C50.3734 28.7607 50.3861 29.3754 50.1709 29.9272C49.9557 30.4789 49.5301 30.9226 48.9877 31.1606C48.4454 31.3985 47.8307 31.4113 47.2789 31.1961C45.907 30.7009 44.4586 30.4512 43 30.4583C39.6762 30.4661 36.4907 31.79 34.1403 34.1403C31.79 36.4906 30.4661 39.6761 30.4583 43C30.4512 44.4586 30.7009 45.907 31.1961 47.2789ZM43 59.9681C40.9897 59.9746 38.9933 59.6352 37.0981 58.9648C36.8108 58.867 36.5466 58.7112 36.3221 58.507C36.0976 58.3028 35.9174 58.0546 35.7929 57.7779C35.6684 57.5011 35.6021 57.2017 35.5982 56.8982C35.5942 56.5947 35.6528 56.2937 35.7701 56.0138C35.8641 55.7239 36.0178 55.4568 36.2212 55.2298C36.4246 55.0028 36.6733 54.8209 36.9513 54.6958C37.2293 54.5708 37.5303 54.5052 37.8351 54.5035C38.14 54.5018 38.4417 54.5639 38.7211 54.6859C40.093 55.1811 41.5415 55.4308 43 55.4236C46.3036 55.4161 49.4714 54.1085 51.8184 51.7836C54.1654 49.4587 55.5029 46.3034 55.5417 43C55.5489 41.5415 55.2991 40.093 54.8039 38.7211C54.6974 38.4479 54.6457 38.1564 54.6517 37.8632C54.6578 37.57 54.7216 37.2808 54.8395 37.0123C54.9573 36.7438 55.1269 36.5011 55.3385 36.298C55.5501 36.095 55.7997 35.9357 56.0729 35.8291C56.3461 35.7226 56.6376 35.6708 56.9308 35.6769C57.224 35.683 57.5131 35.7468 57.7816 35.8646C58.0502 35.9825 58.2929 36.152 58.4959 36.3637C58.6989 36.5753 58.8583 36.8248 58.9648 37.098C59.6352 38.9933 59.9746 40.9897 59.9682 43C59.9604 47.4978 58.1701 51.8092 54.9897 54.9897C51.8092 58.1701 47.4979 59.9603 43 59.9681ZM58.4927 31.1961C57.7631 31.1961 57.0499 30.9797 56.4433 30.5744C55.8367 30.1691 55.3639 29.593 55.0847 28.919C54.8055 28.2449 54.7325 27.5033 54.8748 26.7877C55.0172 26.0722 55.3685 25.4149 55.8843 24.899C56.4002 24.3832 57.0575 24.0318 57.773 23.8895C58.4886 23.7472 59.2303 23.8202 59.9043 24.0994C60.5783 24.3786 61.1544 24.8514 61.5597 25.458C61.9651 26.0646 62.1814 26.7778 62.1814 27.5074C62.1814 28.4857 61.7928 29.4239 61.101 30.1157C60.4092 30.8075 59.471 31.1961 58.4927 31.1961Z" fill="url(#paint0_linear_1_64)"/>
<defs>
<linearGradient id="paint0_linear_1_64" x1="43" y1="7.58824" x2="43" y2="75.2377" gradientUnits="userSpaceOnUse">
<stop stop-color="#A250FF"/>
<stop offset="1" stop-color="#FC50FF"/>
</linearGradient>
</defs>
</svg>
