<svg width="52" height="52" viewBox="0 0 52 52" fill="none" xmlns="http://www.w3.org/2000/svg">
<path d="M26 0.333374C20.9236 0.333374 15.9612 1.8387 11.7404 4.65899C7.51951 7.47928 4.22975 11.4879 2.2871 16.1778C0.344449 20.8678 -0.163836 26.0285 0.826518 31.0074C1.81687 35.9862 4.26138 40.5596 7.85093 44.1491C11.4405 47.7387 16.0138 50.1832 20.9927 51.1735C25.9715 52.1639 31.1322 51.6556 35.8222 49.7129C40.5122 47.7703 44.5208 44.4805 47.3411 40.2597C50.1613 36.0388 51.6667 31.0764 51.6667 26C51.6667 19.1928 48.9625 12.6644 44.1491 7.85097C39.3356 3.03753 32.8072 0.333374 26 0.333374ZM29.1228 40.0953C28.9999 40.1152 28.8877 40.1774 28.8057 40.2711C28.7237 40.3648 28.677 40.4842 28.6736 40.6087V42.2556C28.6736 42.9647 28.3919 43.6447 27.8905 44.1461C27.3891 44.6475 26.7091 44.9292 26 44.9292C25.2909 44.9292 24.6109 44.6475 24.1095 44.1461C23.6081 43.6447 23.3264 42.9647 23.3264 42.2556V40.737C23.3264 40.5952 23.2701 40.4592 23.1698 40.3589C23.0695 40.2586 22.9335 40.2023 22.7917 40.2023H20.332C19.6229 40.2023 18.9428 39.9206 18.4414 39.4192C17.94 38.9178 17.6583 38.2377 17.6583 37.5286C17.6583 36.8196 17.94 36.1395 18.4414 35.6381C18.9428 35.1367 19.6229 34.855 20.332 34.855H28.0106C28.5504 34.8353 29.0678 34.6336 29.4786 34.2828C29.8895 33.932 30.1696 33.4526 30.2737 32.9224C30.3777 32.3923 30.2995 31.8426 30.0518 31.3625C29.804 30.8824 29.4013 30.5002 28.9089 30.2778L21.1233 27.1337C19.5352 26.5135 18.1978 25.3839 17.3208 23.9218C16.4438 22.4598 16.0769 20.748 16.2775 19.055C16.4781 17.3619 17.235 15.7833 18.4294 14.5667C19.6238 13.3501 21.1882 12.5643 22.8772 12.3325C23.0038 12.312 23.1187 12.2468 23.2012 12.1486C23.2836 12.0505 23.328 11.926 23.3264 11.7978V10.1723C23.3264 9.46318 23.6081 8.78313 24.1095 8.28173C24.6109 7.78033 25.2909 7.49865 26 7.49865C26.7091 7.49865 27.3891 7.78033 27.8905 8.28173C28.3919 8.78313 28.6736 9.46318 28.6736 10.1723V11.6695C28.6736 11.8113 28.73 11.9473 28.8302 12.0476C28.9305 12.1479 29.0665 12.2042 29.2083 12.2042H31.6681C32.3771 12.2042 33.0572 12.4859 33.5586 12.9873C34.06 13.4887 34.3417 14.1687 34.3417 14.8778C34.3417 15.5869 34.06 16.2669 33.5586 16.7683C33.0572 17.2697 32.3771 17.5514 31.6681 17.5514H23.9895C23.4319 17.5493 22.891 17.7417 22.4601 18.0955C22.0291 18.4493 21.7351 18.9424 21.6287 19.4897C21.5223 20.0371 21.6101 20.6044 21.877 21.0939C22.144 21.5834 22.5734 21.9645 23.0911 22.1714L30.8767 25.2942C32.4648 25.9143 33.8022 27.044 34.6792 28.506C35.5562 29.9681 35.9231 31.6798 35.7225 33.3729C35.5219 35.0659 34.765 36.6445 33.5706 37.8611C32.3762 39.0777 30.8119 39.8635 29.1228 40.0953Z" fill="url(#paint0_linear_1_188)"/>
<defs>
<linearGradient id="paint0_linear_1_188" x1="6.49998" y1="6.00012" x2="37.5" y2="50.0001" gradientUnits="userSpaceOnUse">
<stop stop-color="#9A42FE"/>
<stop offset="1" stop-color="#23EF9B"/>
</linearGradient>
</defs>
</svg>
