<svg width="54" height="54" viewBox="0 0 54 54" fill="none" xmlns="http://www.w3.org/2000/svg">
<path d="M27 0.416687C21.7423 0.416687 16.6027 1.97577 12.2311 4.89679C7.85949 7.8178 4.45224 11.9696 2.44021 16.827C0.428184 21.6845 -0.0982545 27.0295 0.927469 32.1862C1.95319 37.3428 4.48501 42.0795 8.20276 45.7973C11.9205 49.515 16.6572 52.0468 21.8139 53.0726C26.9705 54.0983 32.3155 53.5718 37.173 51.5598C42.0305 49.5478 46.1822 46.1405 49.1032 41.7689C52.0243 37.3973 53.5833 32.2577 53.5833 27C53.5833 19.9497 50.7826 13.1881 45.7973 8.20277C40.8119 3.21742 34.0503 0.416687 27 0.416687ZM37.6998 28.9716L21.3511 37.146C21.0138 37.3159 20.6387 37.3968 20.2615 37.381C19.8842 37.3652 19.5172 37.2532 19.1953 37.0557C18.8735 36.8581 18.6075 36.5816 18.4226 36.2524C18.2377 35.9231 18.14 35.552 18.1389 35.1744V18.8256C18.1362 18.4461 18.2311 18.0723 18.4145 17.74C18.5978 17.4077 18.8634 17.1281 19.1859 16.928C19.5083 16.7278 19.8768 16.6139 20.2559 16.5971C20.635 16.5802 21.0121 16.6611 21.3511 16.8319L37.6998 25.0063C38.0684 25.19 38.3786 25.4729 38.5953 25.8231C38.8121 26.1733 38.9269 26.5771 38.9269 26.9889C38.9269 27.4008 38.8121 27.8046 38.5953 28.1548C38.3786 28.505 38.0684 28.7879 37.6998 28.9716Z" fill="url(#paint0_linear_1_77)"/>
<defs>
<linearGradient id="paint0_linear_1_77" x1="6.92305" y1="8.59636" x2="42.0577" y2="52.0964" gradientUnits="userSpaceOnUse">
<stop stop-color="#9A42FE"/>
<stop offset="1" stop-color="#23EF9B"/>
</linearGradient>
</defs>
</svg>
