<svg width="47" height="54" viewBox="0 0 47 54" fill="none" xmlns="http://www.w3.org/2000/svg">
<path d="M28.0614 4.00874C27.9362 5.26694 27.811 6.52514 27.7485 7.78334C27.6233 10.4984 27.5607 13.1472 27.4355 15.8623C27.373 16.8556 27.2478 17.8489 26.9349 18.776C26.6219 19.7694 25.9961 20.564 24.8696 20.564C23.7431 20.564 23.1799 19.7694 22.8044 18.776C22.1785 16.9881 22.2411 15.1339 22.6166 13.2797C23.2424 10.1011 23.9309 6.98869 24.7444 3.87629C24.9948 2.88298 25.4954 1.88966 25.9961 1.02879C26.1839 0.697683 26.8097 0.366577 27.1852 0.366577C27.4355 0.366577 27.811 1.02879 27.8736 1.42611C27.9988 2.22077 27.9988 3.08164 28.0614 4.00874Z" fill="url(#paint0_linear_170_117)"/>
<path d="M20.4888 53.4097C19.6126 53.2773 19.4248 52.6151 19.2997 52.0191C19.0493 50.496 18.7364 48.9729 18.7364 47.4498C18.6738 44.7348 18.7364 41.9535 18.7364 39.1722C18.7364 37.4504 18.7364 35.6625 18.6738 33.9407C18.6738 32.4839 19.1745 31.623 20.2384 31.4243C21.3023 31.2257 22.3037 31.9541 22.6792 33.2785C22.8043 33.8745 22.8669 34.5367 22.8043 35.1327C22.3663 39.4371 21.9282 43.7414 21.3649 48.0458C21.1772 49.9 20.8017 51.688 20.4888 53.4097Z" fill="url(#paint1_linear_170_117)"/>
<path d="M46.9616 28.0471C45.8351 28.3119 44.646 28.7093 43.5195 28.7755C38.8257 29.239 34.1946 29.7026 29.5008 30.0337C28.7498 30.0999 27.8736 29.9012 27.1852 29.5701C26.2464 29.1728 26.309 28.1133 27.1852 27.6497C27.6859 27.3848 28.2491 27.2524 28.7498 27.2524C34.6952 27.0537 40.6407 26.9875 46.5861 27.5173C46.7113 27.5173 46.8364 27.5835 46.9616 27.6497C46.9616 27.7822 46.9616 27.9146 46.9616 28.0471Z" fill="url(#paint2_linear_170_117)"/>
<path d="M18.1732 24.1399C15.9828 24.2723 13.7924 24.6034 11.6019 24.5372C8.53535 24.5372 5.40617 24.3385 2.33958 24.2061C1.83891 24.2061 1.33824 24.0737 0.900153 23.9412C0.274317 23.7425 -0.101185 23.2128 0.0239823 22.4843C0.149149 21.8221 0.649818 21.5573 1.27565 21.5573C2.02666 21.6235 2.77766 21.7559 3.52866 21.8221C7.9721 22.3519 12.353 22.8817 16.7964 23.4114C17.2971 23.4777 17.7351 23.6101 18.2358 23.6763C18.1732 23.875 18.1732 24.0074 18.1732 24.1399Z" fill="url(#paint3_linear_170_117)"/>
<defs>
<linearGradient id="paint0_linear_170_117" x1="25.1974" y1="0.366577" x2="25.1974" y2="20.564" gradientUnits="userSpaceOnUse">
<stop stop-color="white"/>
<stop offset="1" stop-color="white" stop-opacity="0"/>
</linearGradient>
<linearGradient id="paint1_linear_170_117" x1="20.7514" y1="31.392" x2="20.7514" y2="53.4097" gradientUnits="userSpaceOnUse">
<stop stop-color="white"/>
<stop offset="1" stop-color="white" stop-opacity="0"/>
</linearGradient>
<linearGradient id="paint2_linear_170_117" x1="36.733" y1="27.1064" x2="36.733" y2="30.0464" gradientUnits="userSpaceOnUse">
<stop stop-color="white"/>
<stop offset="1" stop-color="white" stop-opacity="0"/>
</linearGradient>
<linearGradient id="paint3_linear_170_117" x1="9.11791" y1="21.5573" x2="9.11791" y2="24.5459" gradientUnits="userSpaceOnUse">
<stop stop-color="white"/>
<stop offset="1" stop-color="white" stop-opacity="0"/>
</linearGradient>
</defs>
</svg>
