<svg width="151" height="62" viewBox="0 0 151 62" fill="none" xmlns="http://www.w3.org/2000/svg">
<g clip-path="url(#clip0_1_120)">
<path d="M5.61961 6.83982C6.13912 5.36399 7.0906 4.12816 8.47121 3.29717C9.49891 2.70291 11.3021 3.22747 12.0568 4.42357C12.9348 5.77694 13.1513 7.28431 12.3796 8.77538C12.0389 9.42949 11.5542 10.0036 11.0516 10.4901C9.97686 11.5687 8.63578 11.7891 7.46317 11.2264C6.14657 10.5838 5.32783 9.16348 5.46902 7.71051C5.5029 7.42972 5.57537 7.15926 5.61961 6.83982Z" fill="#00FDD0"/>
<path d="M138.023 55.9829C138.543 54.5071 139.494 53.2713 140.875 52.4403C141.903 51.846 143.706 52.3706 144.46 53.5667C145.338 54.92 145.555 56.4274 144.783 57.9185C144.442 58.5726 143.958 59.1467 143.455 59.6332C142.38 60.7118 141.039 60.9322 139.867 60.3695C138.55 59.7269 137.731 58.3066 137.873 56.8536C137.907 56.5728 137.979 56.3024 138.023 55.9829Z" fill="#D734FF"/>
<mask id="mask0_1_120" style="mask-type:luminance" maskUnits="userSpaceOnUse" x="0" y="0" width="148" height="60">
<path d="M147.665 37.9023L6.21167 0L0.47624 21.4049L141.93 59.3073L147.665 37.9023Z" fill="white"/>
</mask>
<g mask="url(#mask0_1_120)">
<path d="M84.5686 39.0923C84.0209 38.8213 82.8765 38.3076 81.8018 37.6884C79.241 36.1326 77.0464 34.1366 75.1972 31.7776C74.1544 30.4215 73.1503 29.0757 72.0972 27.7583C70.9209 26.2836 69.5177 25.038 67.947 23.9545C65.5049 22.2649 62.7314 21.8116 59.8648 21.7061C57.1243 21.5929 54.4421 22.0338 51.8418 22.7864C49.2133 23.4901 46.6027 24.2813 44.0127 24.9953C39.1444 26.3412 34.2177 27.133 29.1715 26.9818C21.8196 26.7926 15.7589 23.6364 10.692 18.4689C9.39709 17.1281 8.53224 15.5712 8.16712 13.6927C8.10595 13.3036 7.9008 12.8345 8.41841 12.6005C8.78921 12.4514 9.18259 12.681 9.49315 13.2198C9.57784 13.3667 9.65219 13.5523 9.72653 13.7378C10.4417 15.5445 11.5795 17.0089 12.9723 18.2931C15.6526 20.792 18.6321 22.7912 22.0502 24.0798C24.9102 25.136 27.8794 25.4761 30.9032 25.4581C35.2934 25.4335 39.6178 24.7288 43.8349 23.4983C46.4738 22.756 49.123 21.9751 51.7619 21.2328C54.5654 20.4932 57.3916 20.1323 60.2789 20.1606C65.5002 20.2759 69.6787 22.4308 73.0722 26.2803C74.0895 27.4225 74.9986 28.66 75.9077 29.8974C77.7259 32.3723 80.0081 34.3504 82.5763 36.0324C84.723 37.4358 87.0484 38.0175 89.612 37.7106C92.4278 37.3884 95.1796 36.842 97.8317 35.8961C100.582 34.8937 103.321 33.9299 105.986 32.7806C110.838 30.7262 115.864 30.3338 121.01 30.8844C124.106 31.2169 126.875 32.4559 129.384 34.2049C132.477 36.4001 134.909 39.2053 136.546 42.6668C137.285 44.2313 137.985 45.7855 138.675 47.3783C138.823 47.7494 138.913 48.1875 138.935 48.5663C138.955 49.1099 138.466 49.3929 137.995 49.1426C137.707 48.9826 137.401 48.735 137.232 48.4411C136.816 47.8327 136.4 47.2244 136.082 46.5594C135.538 45.5026 135.082 44.4278 134.538 43.371C131.705 37.8912 127.338 34.2779 121.257 32.8968C118.651 32.2814 116.003 32.4414 113.334 32.6787C111.082 32.9035 108.95 33.4504 106.851 34.3375C104.196 35.4482 101.513 36.5099 98.8405 37.533C96.0699 38.6127 93.143 39.195 90.1908 39.5635C88.5203 39.7785 86.8451 39.7023 84.5686 39.0923Z" fill="url(#paint0_linear_1_120)"/>
<path d="M125.255 42.2087C123.289 42.1375 121.459 42.0199 119.609 41.9797C118.098 41.9063 116.616 41.8818 115.106 41.8083C110.904 41.5935 106.906 42.4686 103.061 44.0059C101.491 44.6203 99.966 45.3713 98.4131 46.0733C97.7591 46.3536 97.4683 46.3585 97.3092 46.026C97.1144 45.5183 97.4391 45.2326 97.792 44.9959C98.2918 44.6743 98.8301 44.363 99.358 44.0903C104.545 41.7116 109.917 40.3353 115.676 40.7602C118.105 40.9556 120.573 41.1612 122.991 41.3952C123.833 41.4964 124.597 41.5769 125.255 42.2087Z" fill="url(#paint1_linear_1_120)"/>
<path d="M138.959 58.5113C137.338 58.077 136.291 56.4298 136.645 54.9513C137.153 53.058 138.739 52.0752 140.563 52.5225C142.194 52.9181 143.242 54.5653 142.789 56.1005C142.344 57.7619 141.014 59.0206 138.959 58.5113ZM138.669 54.4996C138.14 55.3931 138.111 55.9651 138.565 56.5838C138.963 57.1046 139.581 57.27 140.186 57.018C140.742 56.7943 141.17 56.1223 141.14 55.6173C141.1 55.1509 140.604 54.6867 139.927 54.5882C139.541 54.4849 139.124 54.4974 138.669 54.4996Z" fill="url(#paint2_linear_1_120)"/>
<path d="M11.0609 5.9788C10.5781 7.00895 9.96916 8.04671 8.88217 8.70791C7.80555 9.33047 6.76092 9.21621 5.78689 8.37546C4.58417 7.30779 4.3188 5.82871 5.14699 4.4356C5.44627 3.93603 5.82272 3.45716 6.21705 3.06588C6.92571 2.42755 7.76236 2.23762 8.70911 2.40848C9.0178 2.49119 9.33683 2.53526 9.65585 2.57933C10.2553 2.65714 10.6562 3.01303 10.8896 3.53109C11.1767 4.31198 11.2115 5.10812 11.0609 5.9788ZM8.65262 4.00837C8.07384 3.85329 7.58729 3.97138 7.2419 4.33436C6.93509 4.70766 6.60758 5.15825 6.40618 5.60121C6.10407 6.26566 6.27817 6.85066 6.87953 7.38449C7.28043 7.74038 7.90062 7.74091 8.44928 7.39099C8.99795 7.04108 9.34617 6.51321 9.52216 5.85639C9.72922 5.08364 9.22103 4.20209 8.65262 4.00837Z" fill="url(#paint3_linear_1_120)"/>
</g>
</g>
<defs>
<linearGradient id="paint0_linear_1_120" x1="76.7304" y1="18.8263" x2="71.3208" y2="39.015" gradientUnits="userSpaceOnUse">
<stop stop-color="white"/>
<stop offset="1" stop-color="white" stop-opacity="0"/>
</linearGradient>
<linearGradient id="paint1_linear_1_120" x1="112.702" y1="38.5232" x2="109.753" y2="49.5294" gradientUnits="userSpaceOnUse">
<stop stop-color="white"/>
<stop offset="1" stop-color="white" stop-opacity="0"/>
</linearGradient>
<linearGradient id="paint2_linear_1_120" x1="140.525" y1="52.5114" x2="138.92" y2="58.501" gradientUnits="userSpaceOnUse">
<stop stop-color="white"/>
<stop offset="1" stop-color="white" stop-opacity="0"/>
</linearGradient>
<linearGradient id="paint3_linear_1_120" x1="8.80277" y1="2.33497" x2="7.00607" y2="9.04033" gradientUnits="userSpaceOnUse">
<stop stop-color="white"/>
<stop offset="1" stop-color="white" stop-opacity="0"/>
</linearGradient>
<clipPath id="clip0_1_120">
<rect width="149" height="24" fill="white" transform="translate(6.21167) rotate(15)"/>
</clipPath>
</defs>
</svg>
