<svg width="146" height="146" viewBox="0 0 146 146" fill="none" xmlns="http://www.w3.org/2000/svg">
<path opacity="0.12" d="M72.0432 143.849C72.3304 144.795 73.6696 144.795 73.9568 143.849L83.067 113.851C83.2822 113.142 84.1664 112.905 84.7072 113.411L107.596 134.836C108.318 135.511 109.477 134.842 109.253 133.879L102.144 103.344C101.976 102.623 102.623 101.976 103.344 102.144L133.879 109.253C134.842 109.477 135.511 108.318 134.836 107.596L113.411 84.7072C112.905 84.1664 113.142 83.2822 113.851 83.067L143.849 73.9568C144.795 73.6696 144.795 72.3304 143.849 72.0432L113.851 62.933C113.142 62.7178 112.905 61.8336 113.411 61.2928L134.836 38.404C135.511 37.6823 134.842 36.5226 133.879 36.7467L103.344 43.8563C102.623 44.0243 101.976 43.377 102.144 42.6556L109.253 12.1212C109.477 11.1584 108.318 10.4888 107.596 11.1643L84.7072 32.5886C84.1664 33.0948 83.2822 32.8579 83.067 32.1491L73.9568 2.15077C73.6696 1.20488 72.3304 1.20489 72.0432 2.15078L62.933 32.1491C62.7178 32.8579 61.8336 33.0948 61.2928 32.5886L38.404 11.1643C37.6823 10.4888 36.5226 11.1584 36.7467 12.1212L43.8563 42.6556C44.0243 43.377 43.377 44.0243 42.6556 43.8563L12.1212 36.7467C11.1584 36.5226 10.4888 37.6823 11.1644 38.404L32.5886 61.2928C33.0948 61.8336 32.8579 62.7178 32.1491 62.933L2.15077 72.0432C1.20488 72.3304 1.20489 73.6696 2.15078 73.9568L32.1491 83.067C32.8579 83.2822 33.0948 84.1664 32.5886 84.7072L11.1643 107.596C10.4888 108.318 11.1584 109.477 12.1212 109.253L42.6556 102.144C43.377 101.976 44.0243 102.623 43.8563 103.344L36.7467 133.879C36.5226 134.842 37.6823 135.511 38.404 134.836L61.2928 113.411C61.8336 112.905 62.7178 113.142 62.933 113.851L72.0432 143.849Z" stroke="url(#paint0_linear_1_119)" stroke-width="2"/>
<defs>
<linearGradient id="paint0_linear_1_119" x1="73" y1="147" x2="73" y2="-1" gradientUnits="userSpaceOnUse">
<stop stop-color="white"/>
<stop offset="1" stop-color="white" stop-opacity="0"/>
</linearGradient>
</defs>
</svg>
