<svg width="58" height="58" viewBox="0 0 58 58" fill="none" xmlns="http://www.w3.org/2000/svg">
<path fill-rule="evenodd" clip-rule="evenodd" d="M27.4119 10.5924C28.0501 10.5924 28.6621 10.3388 29.1134 9.88758C29.5646 9.43633 29.8182 8.82429 29.8182 8.18611C29.7917 7.36973 30.0761 6.57373 30.6138 5.9589C31.1516 5.34407 31.9026 4.95625 32.7152 4.87376C33.5279 4.79127 34.3415 5.02028 34.9918 5.51451C35.6422 6.00875 36.0807 6.73137 36.2188 7.53642C36.5557 9.14861 36.2188 9.67798 33.9329 11.627L25.8238 18.8458C25.4557 19.1714 25.1962 19.6019 25.08 20.0794C24.9639 20.5569 24.9967 21.0585 25.1741 21.5167C25.3486 21.969 25.6556 22.3579 26.0549 22.6327C26.4542 22.9075 26.9272 23.0553 27.4119 23.0567H39.8282C40.4663 23.0567 41.0784 22.8032 41.5296 22.352C41.9809 21.9007 42.2344 21.2887 42.2344 20.6505C42.2344 20.0123 41.9809 19.4003 41.5296 18.949C41.0784 18.4977 40.4663 18.2442 39.8282 18.2442H33.8125L37.1332 15.3086L37.1688 15.2776C39.3982 13.336 41.9404 11.122 40.9591 6.64611C40.5809 4.67359 39.4779 2.91415 37.8672 1.71431C36.2565 0.514469 34.255 -0.0388137 32.2567 0.163425C30.2585 0.365665 28.4084 1.30877 27.0708 2.807C25.7332 4.30523 25.005 6.25 25.0297 8.2583C25.0484 8.87974 25.3068 9.46985 25.7509 9.90497C26.195 10.3401 26.7902 10.5864 27.4119 10.5924ZM55.4688 0.125244C51.8395 0.131606 48.3607 1.57615 45.7944 4.14244C43.2281 6.70872 41.7836 10.1875 41.7772 13.8168V16.0787C41.7772 16.7169 42.0307 17.3289 42.482 17.7802C42.9333 18.2314 43.5453 18.4849 44.1835 18.4849H53.0625V20.5784C53.0625 21.2165 53.316 21.8286 53.7673 22.2798C54.2186 22.7311 54.8306 22.9846 55.4688 22.9846C56.107 22.9846 56.719 22.7311 57.1703 22.2798C57.6215 21.8286 57.875 21.2165 57.875 20.5784V2.53149C57.875 1.89332 57.6215 1.28128 57.1703 0.830018C56.719 0.378759 56.107 0.125244 55.4688 0.125244ZM53.0625 13.6724H46.5897C46.6257 11.7637 47.2742 9.91698 48.4397 8.4049C49.6052 6.89282 51.2258 5.79542 53.0625 5.27462V13.6724ZM32.1161 35.9336C34.1039 35.9336 36.0111 36.7194 37.4219 38.1198L46.0363 46.7582C46.6522 47.3817 47.1075 48.1454 47.3632 48.9836C47.6188 49.8219 47.6672 50.7097 47.5041 51.5707C47.3283 52.4389 46.9393 53.2497 46.3722 53.9301C45.8052 54.6106 45.0778 55.1394 44.2556 55.4689C37.8791 58.0312 30.8574 58.5195 24.1875 56.8645C19.7642 55.7229 15.6364 53.6483 12.081 50.7799C8.52558 47.9115 5.62494 44.3157 3.57378 40.2339C1.52261 36.1521 0.368387 31.6787 0.188578 27.114C0.00876945 22.5494 0.807539 17.9991 2.53127 13.7685C2.86108 12.9492 3.3889 12.2244 4.0675 11.6591C4.74609 11.0937 5.55428 10.7055 6.41971 10.529C7.28515 10.3526 8.18083 10.3935 9.02657 10.6481C9.87232 10.9027 10.6417 11.3631 11.266 11.9879L19.9766 20.6745C21.3769 22.0853 22.1628 23.9925 22.1628 25.9803C22.1628 27.9681 21.3769 29.8752 19.9766 31.286L17.9794 33.2832C16.6909 34.825 14.9767 35.953 13.051 36.5265C11.1253 37.0999 9.0733 37.0933 7.15127 36.5076C9.92673 42.9986 15.0978 48.1696 21.5888 50.9451C20.9993 49.0213 20.9933 46.9659 21.5715 45.0386C22.1497 43.1113 23.2861 41.3987 24.8372 40.117L26.8103 38.1198C28.2211 36.7194 30.1283 35.9336 32.1161 35.9336Z" fill="url(#paint0_linear_1_175)"/>
<defs>
<linearGradient id="paint0_linear_1_175" x1="9.5" y1="13.5" x2="40" y2="50.5" gradientUnits="userSpaceOnUse">
<stop stop-color="#9A42FE"/>
<stop offset="1" stop-color="#23EF9B"/>
</linearGradient>
</defs>
</svg>
