<svg width="47" height="50" viewBox="0 0 47 50" fill="none" xmlns="http://www.w3.org/2000/svg">
<path fill-rule="evenodd" clip-rule="evenodd" d="M0.348682 12.6065C1.24064 9.91808 3.43446 7.71395 5.55997 5.92547C6.03821 5.57845 6.37981 5.71955 6.30769 6.12758C6.27353 6.50701 6.20521 6.86833 6.13689 7.22965C6.06857 7.59096 6.00025 7.95228 5.96609 8.33171C5.82945 9.36514 5.82945 10.3299 5.89777 11.3634C5.96609 12.6713 6.24317 13.9107 6.7214 15.0814C7.19964 16.1835 7.75 17.2855 8.29656 18.319C9.67054 21.2133 11.0407 24.1039 12.3426 26.9982C12.4881 27.3391 12.6337 27.676 12.7783 28.0106C13.2484 29.0988 13.7085 30.1639 14.1265 31.2692C14.6731 32.7831 14.9464 34.2322 14.4681 35.8148C13.5078 38.9837 10.9041 41.3251 8.50531 43.3919C8.4436 43.4436 8.36478 43.5156 8.27633 43.5963C7.77718 44.0521 6.9713 44.7879 7.20344 43.7352C7.35654 42.9011 7.5653 42.0816 7.77368 41.2636C8.03023 40.2565 8.28619 39.2517 8.43699 38.2248C8.73916 35.9074 7.64844 33.4856 6.68068 31.3367C6.5544 31.0564 6.43021 30.7806 6.31149 30.5103C5.50908 28.6865 4.62881 26.9133 3.75067 25.1444C3.20406 24.0433 2.65827 22.9439 2.13259 21.8349C0.758601 19.013 -0.679912 15.7754 0.348682 12.6065ZM31.7416 12.6065C32.6336 9.9219 34.8274 7.71776 36.9529 5.92547C37.435 5.57845 37.7766 5.71955 37.7044 6.13139C37.6703 6.51083 37.602 6.87215 37.5336 7.23347C37.4653 7.59479 37.397 7.9561 37.3629 8.33553C37.2262 9.36896 37.2262 10.3337 37.2945 11.3672C37.3629 12.6752 37.6399 13.9145 38.1182 15.0852C38.5964 16.1873 39.1468 17.2894 39.6933 18.3228C41.0673 21.2171 42.4375 24.1077 43.7394 27.002C43.8849 27.3429 44.0305 27.6798 44.1751 28.0145C44.6451 29.1026 45.1053 30.1678 45.5233 31.273C46.0698 32.7869 46.3431 34.236 45.8649 35.8186C44.9046 38.9875 42.3009 41.3289 39.9021 43.3958C39.8404 43.4474 39.7615 43.5194 39.6731 43.6002C39.1739 44.0559 38.3681 44.7918 38.6002 43.739C38.7533 42.9049 38.9621 42.0854 39.1704 41.2674C39.427 40.2603 39.683 39.2555 39.8338 38.2286C40.1359 35.9112 39.0452 33.4894 38.0774 31.3406C37.9512 31.0602 37.827 30.7844 37.7082 30.5142C36.9109 28.6994 36.0352 26.9375 35.1614 25.1795C34.6086 24.0672 34.0565 22.9565 33.5256 21.8349C32.1516 19.013 30.7131 15.7754 31.7416 12.6065Z" fill="#165098"/>
<path fill-rule="evenodd" clip-rule="evenodd" d="M20.7763 0.689685C18.3775 2.6879 15.7738 5.09796 14.3315 7.91986C13.3029 9.91807 13.1662 11.9849 13.7128 14.048C14.3998 16.5267 15.3563 19.0054 16.3849 21.4154C18.3737 26.0296 20.9775 30.3692 22.898 35.0521C23.585 36.7033 24.3365 38.5642 24.4732 40.4251C24.6098 42.6979 23.8545 45.108 23.2396 47.2435C23.103 47.865 22.6931 48.6887 22.7614 49.3103C22.8297 49.7908 23.103 49.5849 23.3801 49.379C24.5453 48.4828 25.7105 47.4494 26.7391 46.416C29.5478 43.7313 32.7702 40.1468 32.497 35.9482C32.3603 34.2246 31.5367 32.5734 30.8535 30.9908C30.0982 29.1337 29.2783 27.3452 28.4547 25.5529C26.9479 22.1781 25.3689 18.8719 23.7254 15.5657C23.1789 14.395 22.4919 13.2929 22.082 12.1222C21.4633 10.5397 21.19 8.88464 21.1217 7.23345C21.0534 5.9941 21.1217 4.68611 21.2583 3.44676C21.3267 2.61926 21.5999 1.86421 21.5999 1.0367C21.8049 0.27784 21.395 0.209199 20.7763 0.689685V0.689685Z" fill="#5C9DD5"/>
</svg>
