<svg width="36" height="36" viewBox="0 0 36 36" fill="none" xmlns="http://www.w3.org/2000/svg">
<path d="M10.755 8.97002C10.2374 8.97693 9.74333 9.18739 9.37978 9.55586C9.01622 9.92432 8.81241 10.4211 8.81245 10.9388V24.2081C8.81245 24.2952 8.77788 24.3786 8.71635 24.4402C8.65481 24.5017 8.57135 24.5363 8.48433 24.5363H6.81745C6.58383 24.5349 6.35407 24.5959 6.1519 24.713C5.94974 24.8301 5.7825 24.9991 5.66745 25.2024C5.5524 25.4058 5.49372 25.6361 5.49745 25.8697C5.50119 26.1033 5.56721 26.3317 5.6887 26.5313L9.6262 33.0938C9.74242 33.2896 9.90759 33.4519 10.1055 33.5646C10.3034 33.6773 10.5272 33.7365 10.755 33.7365C10.9827 33.7365 11.2065 33.6773 11.4044 33.5646C11.6023 33.4519 11.7675 33.2896 11.8837 33.0938L15.8212 26.5313C15.9361 26.3323 15.9967 26.1067 15.9971 25.877C15.9974 25.6473 15.9375 25.4215 15.8232 25.2222C15.7089 25.0229 15.5444 24.8571 15.3459 24.7413C15.1475 24.6256 14.9222 24.5639 14.6925 24.5625H13.0518C13.0087 24.5592 12.9666 24.5474 12.9281 24.5278C12.8895 24.5081 12.8552 24.4811 12.8272 24.4481C12.7991 24.4152 12.7778 24.377 12.7646 24.3359C12.7513 24.2947 12.7464 24.2513 12.75 24.2081V10.9388C12.75 10.678 12.6982 10.4198 12.5976 10.1793C12.497 9.93867 12.3497 9.72046 12.1641 9.53729C11.9785 9.35413 11.7583 9.20967 11.5164 9.11228C11.2745 9.0149 11.0157 8.96655 10.755 8.97002Z" fill="black"/>
<path d="M25.2449 26.9775C25.7671 26.9775 26.2679 26.7701 26.6371 26.4009C27.0063 26.0317 27.2137 25.5309 27.2137 25.0088V11.7394C27.2203 11.657 27.2578 11.5802 27.3186 11.5242C27.3794 11.4682 27.4592 11.4373 27.5418 11.4375H29.1824C29.4141 11.4375 29.6416 11.3761 29.8419 11.2597C30.0422 11.1433 30.2081 10.9759 30.3227 10.7746C30.4374 10.5733 30.4967 10.3452 30.4947 10.1136C30.4926 9.88193 30.4293 9.65494 30.3112 9.45567L26.3737 2.89317C26.2575 2.69731 26.0923 2.53507 25.8944 2.42238C25.6965 2.30968 25.4727 2.25043 25.2449 2.25043C25.0172 2.25043 24.7934 2.30968 24.5955 2.42238C24.3976 2.53507 24.2324 2.69731 24.1162 2.89317L20.1787 9.45567C20.0606 9.65494 19.9973 9.88193 19.9952 10.1136C19.9932 10.3452 20.0525 10.5733 20.1672 10.7746C20.2818 10.9759 20.4477 11.1433 20.648 11.2597C20.8483 11.3761 21.0758 11.4375 21.3075 11.4375H22.9481C23.0351 11.4375 23.1186 11.4721 23.1801 11.5336C23.2416 11.5952 23.2762 11.6786 23.2762 11.7657V25.0088C23.2762 25.5309 23.4836 26.0317 23.8528 26.4009C24.222 26.7701 24.7228 26.9775 25.2449 26.9775Z" fill="black"/>
</svg>
