<svg width="50" height="50" viewBox="0 0 50 50" fill="none" xmlns="http://www.w3.org/2000/svg">
<path d="M48.3497 15.8791L26.8886 0.856262C26.3673 0.488619 25.7451 0.29126 25.1073 0.29126C24.4694 0.29126 23.8472 0.488619 23.326 0.856262L1.86486 15.8791C1.41391 16.1412 1.03607 16.5124 0.766065 16.9586C0.49606 17.4049 0.342556 17.9119 0.319661 18.4329V46.4612C0.307821 46.8872 0.382994 47.3111 0.540582 47.707C0.69817 48.1029 0.934861 48.4625 1.23618 48.7639C1.5375 49.0652 1.89712 49.3019 2.29304 49.4595C2.68896 49.617 3.11287 49.6922 3.53883 49.6804H46.4611C46.8871 49.6922 47.311 49.617 47.7069 49.4595C48.1028 49.3019 48.4625 49.0652 48.7638 48.7639C49.0651 48.4625 49.3018 48.1029 49.4594 47.707C49.617 47.3111 49.6921 46.8872 49.6803 46.4612V18.4329C49.6807 17.9315 49.5599 17.4375 49.3282 16.9928C49.0965 16.5482 48.7608 16.1661 48.3497 15.8791ZM20.4502 17.1453C20.3856 17.1033 20.3323 17.0461 20.2949 16.9788C20.2575 16.9114 20.2372 16.836 20.2356 16.759C20.2412 16.6912 20.2613 16.6254 20.2947 16.5662C20.328 16.5069 20.3737 16.4555 20.4288 16.4156C21.8014 15.0578 23.6488 14.288 25.5794 14.2695C26.9628 14.2667 28.32 14.6459 29.5015 15.3654C30.6831 16.0849 31.6429 17.1168 32.2753 18.3471C32.3067 18.4181 32.3228 18.4948 32.3228 18.5724C32.3228 18.65 32.3067 18.7268 32.2753 18.7978C32.2437 18.87 32.1965 18.9344 32.1372 18.9863C32.0778 19.0383 32.0077 19.0765 31.9319 19.0982C30.6907 19.4982 29.3944 19.701 28.0904 19.6991C25.3464 19.6647 22.6821 18.7716 20.4717 17.1453H20.4502ZM18.2183 20.1713C18.2431 20.0879 18.2871 20.0115 18.3467 19.9482C18.4063 19.8848 18.4799 19.8363 18.5616 19.8065C18.6334 19.765 18.7148 19.7432 18.7977 19.7432C18.8806 19.7432 18.962 19.765 19.0338 19.8065C21.6748 21.7309 24.8446 22.7949 28.1118 22.8539C29.5632 22.8483 31.007 22.6462 32.4041 22.253C32.4857 22.2327 32.5709 22.2318 32.6529 22.2504C32.735 22.269 32.8114 22.3067 32.8762 22.3603C32.9394 22.4157 32.9881 22.4858 33.0181 22.5643C33.048 22.6429 33.0582 22.7276 33.0479 22.811C32.8438 24.7407 31.9029 26.5171 30.4213 27.7702C28.9397 29.0233 27.0318 29.6563 25.095 29.5373C23.1582 29.4183 21.342 28.5566 20.025 27.1316C18.7079 25.7066 17.9915 23.8283 18.0251 21.8882C18.0262 21.3105 18.0909 20.7347 18.2183 20.1713ZM37.5333 41.9758C37.3839 42.1978 37.1827 42.3802 36.9472 42.5073C36.7117 42.6344 36.4488 42.7024 36.1812 42.7055H14.7201C14.4525 42.7024 14.1896 42.6344 13.9541 42.5073C13.7186 42.3802 13.5175 42.1978 13.368 41.9758C13.2219 41.7524 13.1336 41.4962 13.1112 41.2302C13.0887 40.9642 13.1327 40.6968 13.2393 40.4521C14.2262 38.0022 15.9081 35.8943 18.0778 34.3881C20.2475 32.8819 22.8103 32.0431 25.4507 31.9749C28.091 32.0431 30.6538 32.8819 32.8235 34.3881C34.9932 35.8943 36.6751 38.0022 37.6621 40.4521C37.7814 40.6898 37.8399 40.9534 37.8324 41.2194C37.8249 41.4853 37.7516 41.7452 37.6191 41.9758H37.5333Z" fill="url(#paint0_linear_1_182)"/>
<defs>
<linearGradient id="paint0_linear_1_182" x1="5.5" y1="13.5" x2="46.5" y2="50" gradientUnits="userSpaceOnUse">
<stop stop-color="#9A42FE"/>
<stop offset="1" stop-color="#23EF9B"/>
</linearGradient>
</defs>
</svg>
