<svg width="86" height="86" viewBox="0 0 86 86" fill="none" xmlns="http://www.w3.org/2000/svg">
<path fill-rule="evenodd" clip-rule="evenodd" d="M27.4722 11.3472C15.2683 11.3472 5.37499 21.2405 5.37499 33.4444C5.37499 45.6484 15.2683 55.5417 27.4722 55.5417C39.6762 55.5417 49.5694 45.6484 49.5694 33.4444C49.5694 21.2405 39.6762 11.3472 27.4722 11.3472ZM4.18054 33.4444C4.18054 20.5808 14.6086 10.1528 27.4722 10.1528C40.3358 10.1528 50.7639 20.5808 50.7639 33.4444C50.7639 46.3081 40.3358 56.7361 27.4722 56.7361C14.6086 56.7361 4.18054 46.3081 4.18054 33.4444Z" fill="white"/>
<path fill-rule="evenodd" clip-rule="evenodd" d="M26.875 24.4861V21.5H28.0695V24.4861H33.4445V25.6806H28.0695V32.8472H29.1659C31.6704 32.8472 33.6852 35.0513 33.6852 37.625C33.6852 40.1987 31.6704 42.4028 29.1659 42.4028H28.0695V45.3889H26.875V42.4028H21.5V41.2083H26.875V34.0417H25.9569C23.4524 34.0417 21.4377 31.8375 21.4377 29.2639C21.4377 26.6902 23.4524 24.4861 25.9569 24.4861H26.875ZM26.875 25.6806H25.9569C24.1828 25.6806 22.6321 27.2769 22.6321 29.2639C22.6321 31.2509 24.1828 32.8472 25.9569 32.8472H26.875V25.6806ZM28.0695 34.0417V41.2083H29.1659C30.9401 41.2083 32.4907 39.612 32.4907 37.625C32.4907 35.638 30.9401 34.0417 29.1659 34.0417H28.0695Z" fill="white"/>
<path d="M58.5278 76.4444C71.0616 76.4444 81.2222 66.2838 81.2222 53.75C81.2222 41.2162 71.0616 31.0555 58.5278 31.0555C45.994 31.0555 35.8333 41.2162 35.8333 53.75C35.8333 66.2838 45.994 76.4444 58.5278 76.4444Z" fill="#00B9E9"/>
<path fill-rule="evenodd" clip-rule="evenodd" d="M58.5278 31.6528C46.3238 31.6528 36.4306 41.546 36.4306 53.75C36.4306 65.9539 46.3238 75.8472 58.5278 75.8472C70.7317 75.8472 80.625 65.9539 80.625 53.75C80.625 41.546 70.7317 31.6528 58.5278 31.6528ZM35.2361 53.75C35.2361 40.8863 45.6642 30.4583 58.5278 30.4583C71.3914 30.4583 81.8195 40.8863 81.8195 53.75C81.8195 66.6136 71.3914 77.0416 58.5278 77.0416C45.6642 77.0416 35.2361 66.6136 35.2361 53.75Z" fill="white"/>
<path fill-rule="evenodd" clip-rule="evenodd" d="M57.9306 44.7917V41.8055H59.125V44.7917H64.5V45.9861H59.125V53.1528H60.2214C62.7259 53.1528 64.7407 55.3569 64.7407 57.9305C64.7407 60.5042 62.7259 62.7083 60.2214 62.7083H59.125V65.6944H57.9306V62.7083H52.5556V61.5139H57.9306V54.3472H57.0124C54.508 54.3472 52.4932 52.1431 52.4932 49.5694C52.4932 46.9958 54.508 44.7917 57.0124 44.7917H57.9306ZM57.9306 45.9861H57.0124C55.2383 45.9861 53.6877 47.5825 53.6877 49.5694C53.6877 51.5564 55.2383 53.1528 57.0124 53.1528H57.9306V45.9861ZM59.125 54.3472V61.5139H60.2214C61.9956 61.5139 63.5463 59.9175 63.5463 57.9305C63.5463 55.9436 61.9956 54.3472 60.2214 54.3472H59.125Z" fill="white"/>
</svg>
